<svg xmlns="http://www.w3.org/2000/svg" version="1.1"
     viewBox="0 0 150 76.0"
     width="150mm" height="76.0mm"
     style="width:100%; height:auto;"
     shape-rendering="crispEdges" stroke="none">
<defs>
    <style><![CDATA[
        @import url('https://fonts.googleapis.com/css?family=IBM+Plex+Sans+Condensed&display=swap');
        g text:last-child {
            font-size: 2px;
            fill: #000;
        }
        g text {
            text-anchor: middle;
            font-size: 2.5px;
            font-weight: 500;
            font-family: 'IBM Plex Sans Condensed', 'Futura Condensed Medium', 'Segoe UI', 'Roboto Condensed', sans-serif;
            fill: currentColor;
        }
        .header {
            font-size: 5px;
            text-anchor: start;
            font-family: 'Lato', 'Helvetica Neue', 'Arial', sans-serif;
            font-weight: bold;
            fill: currentColor;
        }
        .w {
            fill: #fff !important;
        }
    ]]></style>
</defs>
<text x="1.0" y="10" class="header">Reds</text>
<path d="M0,12 h150" stroke="#888" stroke-width="0.25" />
<g transform="translate(1.0,15.0)"><rect y="5" width="14.8" height="9" fill="#FFA07A" /><text><tspan x="7.4" y="4.2">lightsalmon</tspan></text><text x="7.4" y="13">1.0, 0.63, 0.48</text></g>
<g transform="translate(15.8,15.0)"><rect y="5" width="14.8" height="9" fill="#FFA07A" /><text><tspan x="7.4" y="4.2">lightsalmon1</tspan></text><text x="7.4" y="13">1.0, 0.63, 0.48</text></g>
<g transform="translate(30.6,15.0)"><rect y="5" width="14.8" height="9" fill="#FF8C69" /><text><tspan x="7.4" y="4.2">salmon1</tspan></text><text x="7.4" y="13">1.0, 0.55, 0.41</text></g>
<g transform="translate(45.4,15.0)"><rect y="5" width="14.8" height="9" fill="#EE9572" /><text><tspan x="7.4" y="4.2">lightsalmon2</tspan></text><text x="7.4" y="13">0.93, 0.58, 0.45</text></g>
<g transform="translate(60.2,15.0)"><rect y="5" width="14.8" height="9" fill="#E9967A" /><text><tspan x="7.4" y="4.2">darksalmon</tspan></text><text x="7.4" y="13">0.91, 0.59, 0.48</text></g>
<g transform="translate(75.0,15.0)"><rect y="5" width="14.8" height="9" fill="#FF7F50" /><text><tspan x="7.4" y="4.2">coral</tspan></text><text x="7.4" y="13">1.0, 0.5, 0.31</text></g>
<g transform="translate(89.8,15.0)"><rect y="5" width="14.8" height="9" fill="#FA8072" /><text><tspan x="7.4" y="4.2">salmon</tspan></text><text x="7.4" y="13">0.98, 0.5, 0.45</text></g>
<g transform="translate(104.6,15.0)"><rect y="5" width="14.8" height="9" fill="#F08080" /><text><tspan x="7.4" y="4.2">lightcoral</tspan></text><text x="7.4" y="13">0.94, 0.5, 0.5</text></g>
<g transform="translate(119.4,15.0)"><rect y="5" width="14.8" height="9" fill="#EE8262" /><text><tspan x="7.4" y="4.2">salmon2</tspan></text><text x="7.4" y="13">0.93, 0.51, 0.38</text></g>
<g transform="translate(134.2,15.0)"><rect y="5" width="14.8" height="9" fill="#FF7256" /><text><tspan x="7.4" y="4.2">coral1</tspan></text><text x="7.4" y="13">1.0, 0.45, 0.34</text></g>
<g transform="translate(1.0,30.0)"><rect y="5" width="14.8" height="9" fill="#FF6A6A" /><text><tspan x="7.4" y="4.2">indianred1</tspan></text><text x="7.4" y="13">1.0, 0.42, 0.42</text></g>
<g transform="translate(15.8,30.0)"><rect y="5" width="14.8" height="9" fill="#FF6347" /><text><tspan x="7.4" y="4.2">tomato</tspan></text><text x="7.4" y="13">1.0, 0.39, 0.28</text></g>
<g transform="translate(30.6,30.0)"><rect y="5" width="14.8" height="9" fill="#FF6347" /><text><tspan x="7.4" y="4.2">tomato1</tspan></text><text x="7.4" y="13">1.0, 0.39, 0.28</text></g>
<g transform="translate(45.4,30.0)"><rect y="5" width="14.8" height="9" fill="#CD8162" /><text><tspan x="7.4" y="4.2">lightsalmon3</tspan></text><text x="7.4" y="13">0.8, 0.51, 0.38</text></g>
<g transform="translate(60.2,30.0)"><rect y="5" width="14.8" height="9" fill="#EE6A50" /><text><tspan x="7.4" y="4.2">coral2</tspan></text><text x="7.4" y="13">0.93, 0.42, 0.31</text></g>
<g transform="translate(75.0,30.0)"><rect y="5" width="14.8" height="9" fill="#EE6363" /><text><tspan x="7.4" y="4.2">indianred2</tspan></text><text x="7.4" y="13" class="w">0.93, 0.39, 0.39</text></g>
<g transform="translate(89.8,30.0)"><rect y="5" width="14.8" height="9" fill="#EE5C42" /><text><tspan x="7.4" y="4.2">tomato2</tspan></text><text x="7.4" y="13" class="w">0.93, 0.36, 0.26</text></g>
<g transform="translate(104.6,30.0)"><rect y="5" width="14.8" height="9" fill="#CD7054" /><text><tspan x="7.4" y="4.2">salmon3</tspan></text><text x="7.4" y="13" class="w">0.8, 0.44, 0.33</text></g>
<g transform="translate(119.4,30.0)"><rect y="5" width="14.8" height="9" fill="#FF3030" /><text><tspan x="7.4" y="4.2">firebrick1</tspan></text><text x="7.4" y="13" class="w">1.0, 0.19, 0.19</text></g>
<g transform="translate(134.2,30.0)"><rect y="5" width="14.8" height="9" fill="#CD5C5C" /><text><tspan x="7.4" y="4.2">indianred</tspan></text><text x="7.4" y="13" class="w">0.8, 0.36, 0.36</text></g>
<g transform="translate(1.0,45.0)"><rect y="5" width="14.8" height="9" fill="#FF0000" /><text><tspan x="7.4" y="4.2">red</tspan></text><text x="7.4" y="13" class="w">1.0, 0.0, 0.0</text></g>
<g transform="translate(15.8,45.0)"><rect y="5" width="14.8" height="9" fill="#FF0000" /><text><tspan x="7.4" y="4.2">red1</tspan></text><text x="7.4" y="13" class="w">1.0, 0.0, 0.0</text></g>
<g transform="translate(30.6,45.0)"><rect y="5" width="14.8" height="9" fill="#CD5B45" /><text><tspan x="7.4" y="4.2">coral3</tspan></text><text x="7.4" y="13" class="w">0.8, 0.36, 0.27</text></g>
<g transform="translate(45.4,45.0)"><rect y="5" width="14.8" height="9" fill="#EE2C2C" /><text><tspan x="7.4" y="4.2">firebrick2</tspan></text><text x="7.4" y="13" class="w">0.93, 0.17, 0.17</text></g>
<g transform="translate(60.2,45.0)"><rect y="5" width="14.8" height="9" fill="#CD5555" /><text><tspan x="7.4" y="4.2">indianred3</tspan></text><text x="7.4" y="13" class="w">0.8, 0.33, 0.33</text></g>
<g transform="translate(75.0,45.0)"><rect y="5" width="14.8" height="9" fill="#CD4F39" /><text><tspan x="7.4" y="4.2">tomato3</tspan></text><text x="7.4" y="13" class="w">0.8, 0.31, 0.22</text></g>
<g transform="translate(89.8,45.0)"><rect y="5" width="14.8" height="9" fill="#EE0000" /><text><tspan x="7.4" y="4.2">red2</tspan></text><text x="7.4" y="13" class="w">0.93, 0.0, 0.0</text></g>
<g transform="translate(104.6,45.0)"><rect y="5" width="14.8" height="9" fill="#DC143C" /><text><tspan x="7.4" y="4.2">crimson</tspan></text><text x="7.4" y="13" class="w">0.86, 0.08, 0.24</text></g>
<g transform="translate(119.4,45.0)"><rect y="5" width="14.8" height="9" fill="#CD2626" /><text><tspan x="7.4" y="4.2">firebrick3</tspan></text><text x="7.4" y="13" class="w">0.8, 0.15, 0.15</text></g>
<g transform="translate(134.2,45.0)"><rect y="5" width="14.8" height="9" fill="#CD0000" /><text><tspan x="7.4" y="4.2">red3</tspan></text><text x="7.4" y="13" class="w">0.8, 0.0, 0.0</text></g>
<g transform="translate(1.0,60.0)"><rect y="5" width="14.8" height="9" fill="#8B5742" /><text><tspan x="7.4" y="4.2">lightsalmon4</tspan></text><text x="7.4" y="13" class="w">0.55, 0.34, 0.26</text></g>
<g transform="translate(15.8,60.0)"><rect y="5" width="14.8" height="9" fill="#8B4C39" /><text><tspan x="7.4" y="4.2">salmon4</tspan></text><text x="7.4" y="13" class="w">0.55, 0.3, 0.22</text></g>
<g transform="translate(30.6,60.0)"><rect y="5" width="14.8" height="9" fill="#B22222" /><text><tspan x="7.4" y="4.2">firebrick</tspan></text><text x="7.4" y="13" class="w">0.7, 0.13, 0.13</text></g>
<g transform="translate(45.4,60.0)"><rect y="5" width="14.8" height="9" fill="#8B3E2F" /><text><tspan x="7.4" y="4.2">coral4</tspan></text><text x="7.4" y="13" class="w">0.55, 0.24, 0.18</text></g>
<g transform="translate(60.2,60.0)"><rect y="5" width="14.8" height="9" fill="#8B3A3A" /><text><tspan x="7.4" y="4.2">indianred4</tspan></text><text x="7.4" y="13" class="w">0.55, 0.23, 0.23</text></g>
<g transform="translate(75.0,60.0)"><rect y="5" width="14.8" height="9" fill="#8B3626" /><text><tspan x="7.4" y="4.2">tomato4</tspan></text><text x="7.4" y="13" class="w">0.55, 0.21, 0.15</text></g>
<g transform="translate(89.8,60.0)"><rect y="5" width="14.8" height="9" fill="#8B1A1A" /><text><tspan x="7.4" y="4.2">firebrick4</tspan></text><text x="7.4" y="13" class="w">0.55, 0.1, 0.1</text></g>
<g transform="translate(104.6,60.0)"><rect y="5" width="14.8" height="9" fill="#8B0000" /><text><tspan x="7.4" y="4.2">darkred</tspan></text><text x="7.4" y="13" class="w">0.55, 0.0, 0.0</text></g>
<g transform="translate(119.4,60.0)"><rect y="5" width="14.8" height="9" fill="#8B0000" /><text><tspan x="7.4" y="4.2">red4</tspan></text><text x="7.4" y="13" class="w">0.55, 0.0, 0.0</text></g>
</svg>