<svg xmlns="http://www.w3.org/2000/svg" version="1.1"
     viewBox="0 0 150 76.0"
     width="150mm" height="76.0mm"
     style="width:100%; height:auto;"
     shape-rendering="crispEdges" stroke="none">
<defs>
    <style><![CDATA[
        @import url('https://fonts.googleapis.com/css?family=IBM+Plex+Sans+Condensed&display=swap');
        g text:last-child {
            font-size: 2px;
            fill: #000;
        }
        g text {
            text-anchor: middle;
            font-size: 2.5px;
            font-weight: 500;
            font-family: 'IBM Plex Sans Condensed', 'Futura Condensed Medium', 'Segoe UI', 'Roboto Condensed', sans-serif;
            fill: currentColor;
        }
        .header {
            font-size: 5px;
            text-anchor: start;
            font-family: 'Lato', 'Helvetica Neue', 'Arial', sans-serif;
            font-weight: bold;
            fill: currentColor;
        }
        .w {
            fill: #fff !important;
        }
    ]]></style>
</defs>
<text x="1.0" y="10" class="header">Pinks</text>
<path d="M0,12 h150" stroke="#888" stroke-width="0.25" />
<g transform="translate(1.0,15.0)"><rect y="5" width="14.8" height="9" fill="#FFC0CB" /><text><tspan x="7.4" y="4.2">pink</tspan></text><text x="7.4" y="13">1.0, 0.75, 0.8</text></g>
<g transform="translate(15.8,15.0)"><rect y="5" width="14.8" height="9" fill="#FFB6C1" /><text><tspan x="7.4" y="4.2">lightpink</tspan></text><text x="7.4" y="13">1.0, 0.71, 0.76</text></g>
<g transform="translate(30.6,15.0)"><rect y="5" width="14.8" height="9" fill="#FFB5C5" /><text><tspan x="7.4" y="4.2">pink1</tspan></text><text x="7.4" y="13">1.0, 0.71, 0.77</text></g>
<g transform="translate(45.4,15.0)"><rect y="5" width="14.8" height="9" fill="#FFAEB9" /><text><tspan x="7.4" y="4.2">lightpink1</tspan></text><text x="7.4" y="13">1.0, 0.68, 0.73</text></g>
<g transform="translate(60.2,15.0)"><rect y="5" width="14.8" height="9" fill="#EEA9B8" /><text><tspan x="7.4" y="4.2">pink2</tspan></text><text x="7.4" y="13">0.93, 0.66, 0.72</text></g>
<g transform="translate(75.0,15.0)"><rect y="5" width="14.8" height="9" fill="#EEA2AD" /><text><tspan x="7.4" y="4.2">lightpink2</tspan></text><text x="7.4" y="13">0.93, 0.64, 0.68</text></g>
<g transform="translate(89.8,15.0)"><rect y="5" width="14.8" height="9" fill="#FF82AB" /><text><tspan x="7.4" y="2.3">pale</tspan><tspan x="7.4" y="4.5">violetred1</tspan></text><text x="7.4" y="13">1.0, 0.51, 0.67</text></g>
<g transform="translate(104.6,15.0)"><rect y="5" width="14.8" height="9" fill="#FF6EB4" /><text><tspan x="7.4" y="4.2">hotpink1</tspan></text><text x="7.4" y="13">1.0, 0.43, 0.71</text></g>
<g transform="translate(119.4,15.0)"><rect y="5" width="14.8" height="9" fill="#CD919E" /><text><tspan x="7.4" y="4.2">pink3</tspan></text><text x="7.4" y="13">0.8, 0.57, 0.62</text></g>
<g transform="translate(134.2,15.0)"><rect y="5" width="14.8" height="9" fill="#FF69B4" /><text><tspan x="7.4" y="4.2">hotpink</tspan></text><text x="7.4" y="13">1.0, 0.41, 0.71</text></g>
<g transform="translate(1.0,30.0)"><rect y="5" width="14.8" height="9" fill="#EE799F" /><text><tspan x="7.4" y="2.3">pale</tspan><tspan x="7.4" y="4.5">violetred2</tspan></text><text x="7.4" y="13">0.93, 0.47, 0.62</text></g>
<g transform="translate(15.8,30.0)"><rect y="5" width="14.8" height="9" fill="#CD8C95" /><text><tspan x="7.4" y="4.2">lightpink3</tspan></text><text x="7.4" y="13">0.8, 0.55, 0.58</text></g>
<g transform="translate(30.6,30.0)"><rect y="5" width="14.8" height="9" fill="#EE6AA7" /><text><tspan x="7.4" y="4.2">hotpink2</tspan></text><text x="7.4" y="13">0.93, 0.42, 0.65</text></g>
<g transform="translate(45.4,30.0)"><rect y="5" width="14.8" height="9" fill="#DB7093" /><text><tspan x="7.4" y="2.3">pale</tspan><tspan x="7.4" y="4.5">violetred</tspan></text><text x="7.4" y="13">0.86, 0.44, 0.58</text></g>
<g transform="translate(60.2,30.0)"><rect y="5" width="14.8" height="9" fill="#FF34B3" /><text><tspan x="7.4" y="4.2">maroon1</tspan></text><text x="7.4" y="13" class="w">1.0, 0.2, 0.7</text></g>
<g transform="translate(75.0,30.0)"><rect y="5" width="14.8" height="9" fill="#FF3E96" /><text><tspan x="7.4" y="4.2">violetred1</tspan></text><text x="7.4" y="13" class="w">1.0, 0.24, 0.59</text></g>
<g transform="translate(89.8,30.0)"><rect y="5" width="14.8" height="9" fill="#CD6889" /><text><tspan x="7.4" y="2.3">pale</tspan><tspan x="7.4" y="4.5">violetred3</tspan></text><text x="7.4" y="13" class="w">0.8, 0.41, 0.54</text></g>
<g transform="translate(104.6,30.0)"><rect y="5" width="14.8" height="9" fill="#FF1493" /><text><tspan x="7.4" y="4.2">deeppink</tspan></text><text x="7.4" y="13" class="w">1.0, 0.08, 0.58</text></g>
<g transform="translate(119.4,30.0)"><rect y="5" width="14.8" height="9" fill="#FF1493" /><text><tspan x="7.4" y="4.2">deeppink1</tspan></text><text x="7.4" y="13" class="w">1.0, 0.08, 0.58</text></g>
<g transform="translate(134.2,30.0)"><rect y="5" width="14.8" height="9" fill="#CD6090" /><text><tspan x="7.4" y="4.2">hotpink3</tspan></text><text x="7.4" y="13" class="w">0.8, 0.38, 0.56</text></g>
<g transform="translate(1.0,45.0)"><rect y="5" width="14.8" height="9" fill="#EE3A8C" /><text><tspan x="7.4" y="4.2">violetred2</tspan></text><text x="7.4" y="13" class="w">0.93, 0.23, 0.55</text></g>
<g transform="translate(15.8,45.0)"><rect y="5" width="14.8" height="9" fill="#EE30A7" /><text><tspan x="7.4" y="4.2">maroon2</tspan></text><text x="7.4" y="13" class="w">0.93, 0.19, 0.65</text></g>
<g transform="translate(30.6,45.0)"><rect y="5" width="14.8" height="9" fill="#EE1289" /><text><tspan x="7.4" y="4.2">deeppink2</tspan></text><text x="7.4" y="13" class="w">0.93, 0.07, 0.54</text></g>
<g transform="translate(45.4,45.0)"><rect y="5" width="14.8" height="9" fill="#CD3278" /><text><tspan x="7.4" y="4.2">violetred3</tspan></text><text x="7.4" y="13" class="w">0.8, 0.2, 0.47</text></g>
<g transform="translate(60.2,45.0)"><rect y="5" width="14.8" height="9" fill="#CD2990" /><text><tspan x="7.4" y="4.2">maroon3</tspan></text><text x="7.4" y="13" class="w">0.8, 0.16, 0.56</text></g>
<g transform="translate(75.0,45.0)"><rect y="5" width="14.8" height="9" fill="#D02090" /><text><tspan x="7.4" y="4.2">violetred</tspan></text><text x="7.4" y="13" class="w">0.82, 0.13, 0.56</text></g>
<g transform="translate(89.8,45.0)"><rect y="5" width="14.8" height="9" fill="#8B636C" /><text><tspan x="7.4" y="4.2">pink4</tspan></text><text x="7.4" y="13" class="w">0.55, 0.39, 0.42</text></g>
<g transform="translate(104.6,45.0)"><rect y="5" width="14.8" height="9" fill="#CD1076" /><text><tspan x="7.4" y="4.2">deeppink3</tspan></text><text x="7.4" y="13" class="w">0.8, 0.06, 0.46</text></g>
<g transform="translate(119.4,45.0)"><rect y="5" width="14.8" height="9" fill="#8B5F65" /><text><tspan x="7.4" y="4.2">lightpink4</tspan></text><text x="7.4" y="13" class="w">0.55, 0.37, 0.4</text></g>
<g transform="translate(134.2,45.0)"><rect y="5" width="14.8" height="9" fill="#C71585" /><text><tspan x="7.4" y="2.3">medium</tspan><tspan x="7.4" y="4.5">violetred</tspan></text><text x="7.4" y="13" class="w">0.78, 0.08, 0.52</text></g>
<g transform="translate(1.0,60.0)"><rect y="5" width="14.8" height="9" fill="#8B475D" /><text><tspan x="7.4" y="2.3">pale</tspan><tspan x="7.4" y="4.5">violetred4</tspan></text><text x="7.4" y="13" class="w">0.55, 0.28, 0.36</text></g>
<g transform="translate(15.8,60.0)"><rect y="5" width="14.8" height="9" fill="#8B3A62" /><text><tspan x="7.4" y="4.2">hotpink4</tspan></text><text x="7.4" y="13" class="w">0.55, 0.23, 0.38</text></g>
<g transform="translate(30.6,60.0)"><rect y="5" width="14.8" height="9" fill="#8B2252" /><text><tspan x="7.4" y="4.2">violetred4</tspan></text><text x="7.4" y="13" class="w">0.55, 0.13, 0.32</text></g>
<g transform="translate(45.4,60.0)"><rect y="5" width="14.8" height="9" fill="#8B1C62" /><text><tspan x="7.4" y="4.2">maroon4</tspan></text><text x="7.4" y="13" class="w">0.55, 0.11, 0.38</text></g>
<g transform="translate(60.2,60.0)"><rect y="5" width="14.8" height="9" fill="#8B0A50" /><text><tspan x="7.4" y="4.2">deeppink4</tspan></text><text x="7.4" y="13" class="w">0.55, 0.04, 0.31</text></g>
<g transform="translate(75.0,60.0)"><rect y="5" width="14.8" height="9" fill="#800000" /><text><tspan x="7.4" y="4.2">maroon</tspan></text><text x="7.4" y="13" class="w">0.5, 0.0, 0.0</text></g>
</svg>