<svg xmlns="http://www.w3.org/2000/svg" version="1.1"
     viewBox="0 0 150 346.0"
     width="150mm" height="346.0mm"
     style="width:100%; height:auto;"
     shape-rendering="crispEdges" stroke="none">
<defs>
    <style><![CDATA[
        @import url('https://fonts.googleapis.com/css?family=IBM+Plex+Sans+Condensed&display=swap');
        g text:last-child {
            font-size: 2px;
            fill: #000;
        }
        g text {
            text-anchor: middle;
            font-size: 2.5px;
            font-weight: 500;
            font-family: 'IBM Plex Sans Condensed', 'Futura Condensed Medium', 'Segoe UI', 'Roboto Condensed', sans-serif;
            fill: currentColor;
        }
        .header {
            font-size: 5px;
            text-anchor: start;
            font-family: 'Lato', 'Helvetica Neue', 'Arial', sans-serif;
            font-weight: bold;
            fill: currentColor;
        }
        .w {
            fill: #fff !important;
        }
    ]]></style>
</defs>
<text x="1.0" y="10" class="header">Grays</text>
<path d="M0,12 h150" stroke="#888" stroke-width="0.25" />
<g transform="translate(1.0,15.0)"><rect y="5" width="14.8" height="9" fill="#FFFFFF" /><text><tspan x="7.4" y="4.2">gray100</tspan></text><text x="7.4" y="13">1.0, 1.0, 1.0</text></g>
<g transform="translate(15.8,15.0)"><rect y="5" width="14.8" height="9" fill="#FFFFFF" /><text><tspan x="7.4" y="4.2">grey100</tspan></text><text x="7.4" y="13">1.0, 1.0, 1.0</text></g>
<g transform="translate(30.6,15.0)"><rect y="5" width="14.8" height="9" fill="#FCFCFC" /><text><tspan x="7.4" y="4.2">gray99</tspan></text><text x="7.4" y="13">0.99, 0.99, 0.99</text></g>
<g transform="translate(45.4,15.0)"><rect y="5" width="14.8" height="9" fill="#FCFCFC" /><text><tspan x="7.4" y="4.2">grey99</tspan></text><text x="7.4" y="13">0.99, 0.99, 0.99</text></g>
<g transform="translate(60.2,15.0)"><rect y="5" width="14.8" height="9" fill="#FAFAFA" /><text><tspan x="7.4" y="4.2">gray98</tspan></text><text x="7.4" y="13">0.98, 0.98, 0.98</text></g>
<g transform="translate(75.0,15.0)"><rect y="5" width="14.8" height="9" fill="#FAFAFA" /><text><tspan x="7.4" y="4.2">grey98</tspan></text><text x="7.4" y="13">0.98, 0.98, 0.98</text></g>
<g transform="translate(89.8,15.0)"><rect y="5" width="14.8" height="9" fill="#F7F7F7" /><text><tspan x="7.4" y="4.2">gray97</tspan></text><text x="7.4" y="13">0.97, 0.97, 0.97</text></g>
<g transform="translate(104.6,15.0)"><rect y="5" width="14.8" height="9" fill="#F7F7F7" /><text><tspan x="7.4" y="4.2">grey97</tspan></text><text x="7.4" y="13">0.97, 0.97, 0.97</text></g>
<g transform="translate(119.4,15.0)"><rect y="5" width="14.8" height="9" fill="#F5F5F5" /><text><tspan x="7.4" y="4.2">gray96</tspan></text><text x="7.4" y="13">0.96, 0.96, 0.96</text></g>
<g transform="translate(134.2,15.0)"><rect y="5" width="14.8" height="9" fill="#F5F5F5" /><text><tspan x="7.4" y="4.2">grey96</tspan></text><text x="7.4" y="13">0.96, 0.96, 0.96</text></g>
<g transform="translate(1.0,30.0)"><rect y="5" width="14.8" height="9" fill="#F2F2F2" /><text><tspan x="7.4" y="4.2">gray95</tspan></text><text x="7.4" y="13">0.95, 0.95, 0.95</text></g>
<g transform="translate(15.8,30.0)"><rect y="5" width="14.8" height="9" fill="#F2F2F2" /><text><tspan x="7.4" y="4.2">grey95</tspan></text><text x="7.4" y="13">0.95, 0.95, 0.95</text></g>
<g transform="translate(30.6,30.0)"><rect y="5" width="14.8" height="9" fill="#F0F0F0" /><text><tspan x="7.4" y="4.2">gray94</tspan></text><text x="7.4" y="13">0.94, 0.94, 0.94</text></g>
<g transform="translate(45.4,30.0)"><rect y="5" width="14.8" height="9" fill="#F0F0F0" /><text><tspan x="7.4" y="4.2">grey94</tspan></text><text x="7.4" y="13">0.94, 0.94, 0.94</text></g>
<g transform="translate(60.2,30.0)"><rect y="5" width="14.8" height="9" fill="#EDEDED" /><text><tspan x="7.4" y="4.2">gray93</tspan></text><text x="7.4" y="13">0.93, 0.93, 0.93</text></g>
<g transform="translate(75.0,30.0)"><rect y="5" width="14.8" height="9" fill="#EDEDED" /><text><tspan x="7.4" y="4.2">grey93</tspan></text><text x="7.4" y="13">0.93, 0.93, 0.93</text></g>
<g transform="translate(89.8,30.0)"><rect y="5" width="14.8" height="9" fill="#EBEBEB" /><text><tspan x="7.4" y="4.2">gray92</tspan></text><text x="7.4" y="13">0.92, 0.92, 0.92</text></g>
<g transform="translate(104.6,30.0)"><rect y="5" width="14.8" height="9" fill="#EBEBEB" /><text><tspan x="7.4" y="4.2">grey92</tspan></text><text x="7.4" y="13">0.92, 0.92, 0.92</text></g>
<g transform="translate(119.4,30.0)"><rect y="5" width="14.8" height="9" fill="#E8E8E8" /><text><tspan x="7.4" y="4.2">gray91</tspan></text><text x="7.4" y="13">0.91, 0.91, 0.91</text></g>
<g transform="translate(134.2,30.0)"><rect y="5" width="14.8" height="9" fill="#E8E8E8" /><text><tspan x="7.4" y="4.2">grey91</tspan></text><text x="7.4" y="13">0.91, 0.91, 0.91</text></g>
<g transform="translate(1.0,45.0)"><rect y="5" width="14.8" height="9" fill="#E5E5E5" /><text><tspan x="7.4" y="4.2">gray90</tspan></text><text x="7.4" y="13">0.9, 0.9, 0.9</text></g>
<g transform="translate(15.8,45.0)"><rect y="5" width="14.8" height="9" fill="#E5E5E5" /><text><tspan x="7.4" y="4.2">grey90</tspan></text><text x="7.4" y="13">0.9, 0.9, 0.9</text></g>
<g transform="translate(30.6,45.0)"><rect y="5" width="14.8" height="9" fill="#E3E3E3" /><text><tspan x="7.4" y="4.2">gray89</tspan></text><text x="7.4" y="13">0.89, 0.89, 0.89</text></g>
<g transform="translate(45.4,45.0)"><rect y="5" width="14.8" height="9" fill="#E3E3E3" /><text><tspan x="7.4" y="4.2">grey89</tspan></text><text x="7.4" y="13">0.89, 0.89, 0.89</text></g>
<g transform="translate(60.2,45.0)"><rect y="5" width="14.8" height="9" fill="#E0E0E0" /><text><tspan x="7.4" y="4.2">gray88</tspan></text><text x="7.4" y="13">0.88, 0.88, 0.88</text></g>
<g transform="translate(75.0,45.0)"><rect y="5" width="14.8" height="9" fill="#E0E0E0" /><text><tspan x="7.4" y="4.2">grey88</tspan></text><text x="7.4" y="13">0.88, 0.88, 0.88</text></g>
<g transform="translate(89.8,45.0)"><rect y="5" width="14.8" height="9" fill="#DEDEDE" /><text><tspan x="7.4" y="4.2">gray87</tspan></text><text x="7.4" y="13">0.87, 0.87, 0.87</text></g>
<g transform="translate(104.6,45.0)"><rect y="5" width="14.8" height="9" fill="#DEDEDE" /><text><tspan x="7.4" y="4.2">grey87</tspan></text><text x="7.4" y="13">0.87, 0.87, 0.87</text></g>
<g transform="translate(119.4,45.0)"><rect y="5" width="14.8" height="9" fill="#DBDBDB" /><text><tspan x="7.4" y="4.2">gray86</tspan></text><text x="7.4" y="13">0.86, 0.86, 0.86</text></g>
<g transform="translate(134.2,45.0)"><rect y="5" width="14.8" height="9" fill="#DBDBDB" /><text><tspan x="7.4" y="4.2">grey86</tspan></text><text x="7.4" y="13">0.86, 0.86, 0.86</text></g>
<g transform="translate(1.0,60.0)"><rect y="5" width="14.8" height="9" fill="#D9D9D9" /><text><tspan x="7.4" y="4.2">gray85</tspan></text><text x="7.4" y="13">0.85, 0.85, 0.85</text></g>
<g transform="translate(15.8,60.0)"><rect y="5" width="14.8" height="9" fill="#D9D9D9" /><text><tspan x="7.4" y="4.2">grey85</tspan></text><text x="7.4" y="13">0.85, 0.85, 0.85</text></g>
<g transform="translate(30.6,60.0)"><rect y="5" width="14.8" height="9" fill="#D6D6D6" /><text><tspan x="7.4" y="4.2">gray84</tspan></text><text x="7.4" y="13">0.84, 0.84, 0.84</text></g>
<g transform="translate(45.4,60.0)"><rect y="5" width="14.8" height="9" fill="#D6D6D6" /><text><tspan x="7.4" y="4.2">grey84</tspan></text><text x="7.4" y="13">0.84, 0.84, 0.84</text></g>
<g transform="translate(60.2,60.0)"><rect y="5" width="14.8" height="9" fill="#D4D4D4" /><text><tspan x="7.4" y="4.2">gray83</tspan></text><text x="7.4" y="13">0.83, 0.83, 0.83</text></g>
<g transform="translate(75.0,60.0)"><rect y="5" width="14.8" height="9" fill="#D4D4D4" /><text><tspan x="7.4" y="4.2">grey83</tspan></text><text x="7.4" y="13">0.83, 0.83, 0.83</text></g>
<g transform="translate(89.8,60.0)"><rect y="5" width="14.8" height="9" fill="#D3D3D3" /><text><tspan x="7.4" y="4.2">lightgray</tspan></text><text x="7.4" y="13">0.83, 0.83, 0.83</text></g>
<g transform="translate(104.6,60.0)"><rect y="5" width="14.8" height="9" fill="#D3D3D3" /><text><tspan x="7.4" y="4.2">lightgrey</tspan></text><text x="7.4" y="13">0.83, 0.83, 0.83</text></g>
<g transform="translate(119.4,60.0)"><rect y="5" width="14.8" height="9" fill="#D1D1D1" /><text><tspan x="7.4" y="4.2">gray82</tspan></text><text x="7.4" y="13">0.82, 0.82, 0.82</text></g>
<g transform="translate(134.2,60.0)"><rect y="5" width="14.8" height="9" fill="#D1D1D1" /><text><tspan x="7.4" y="4.2">grey82</tspan></text><text x="7.4" y="13">0.82, 0.82, 0.82</text></g>
<g transform="translate(1.0,75.0)"><rect y="5" width="14.8" height="9" fill="#CFCFCF" /><text><tspan x="7.4" y="4.2">gray81</tspan></text><text x="7.4" y="13">0.81, 0.81, 0.81</text></g>
<g transform="translate(15.8,75.0)"><rect y="5" width="14.8" height="9" fill="#CFCFCF" /><text><tspan x="7.4" y="4.2">grey81</tspan></text><text x="7.4" y="13">0.81, 0.81, 0.81</text></g>
<g transform="translate(30.6,75.0)"><rect y="5" width="14.8" height="9" fill="#CCCCCC" /><text><tspan x="7.4" y="4.2">gray80</tspan></text><text x="7.4" y="13">0.8, 0.8, 0.8</text></g>
<g transform="translate(45.4,75.0)"><rect y="5" width="14.8" height="9" fill="#CCCCCC" /><text><tspan x="7.4" y="4.2">grey80</tspan></text><text x="7.4" y="13">0.8, 0.8, 0.8</text></g>
<g transform="translate(60.2,75.0)"><rect y="5" width="14.8" height="9" fill="#C9C9C9" /><text><tspan x="7.4" y="4.2">gray79</tspan></text><text x="7.4" y="13">0.79, 0.79, 0.79</text></g>
<g transform="translate(75.0,75.0)"><rect y="5" width="14.8" height="9" fill="#C9C9C9" /><text><tspan x="7.4" y="4.2">grey79</tspan></text><text x="7.4" y="13">0.79, 0.79, 0.79</text></g>
<g transform="translate(89.8,75.0)"><rect y="5" width="14.8" height="9" fill="#C7C7C7" /><text><tspan x="7.4" y="4.2">gray78</tspan></text><text x="7.4" y="13">0.78, 0.78, 0.78</text></g>
<g transform="translate(104.6,75.0)"><rect y="5" width="14.8" height="9" fill="#C7C7C7" /><text><tspan x="7.4" y="4.2">grey78</tspan></text><text x="7.4" y="13">0.78, 0.78, 0.78</text></g>
<g transform="translate(119.4,75.0)"><rect y="5" width="14.8" height="9" fill="#C4C4C4" /><text><tspan x="7.4" y="4.2">gray77</tspan></text><text x="7.4" y="13">0.77, 0.77, 0.77</text></g>
<g transform="translate(134.2,75.0)"><rect y="5" width="14.8" height="9" fill="#C4C4C4" /><text><tspan x="7.4" y="4.2">grey77</tspan></text><text x="7.4" y="13">0.77, 0.77, 0.77</text></g>
<g transform="translate(1.0,90.0)"><rect y="5" width="14.8" height="9" fill="#C2C2C2" /><text><tspan x="7.4" y="4.2">gray76</tspan></text><text x="7.4" y="13">0.76, 0.76, 0.76</text></g>
<g transform="translate(15.8,90.0)"><rect y="5" width="14.8" height="9" fill="#C2C2C2" /><text><tspan x="7.4" y="4.2">grey76</tspan></text><text x="7.4" y="13">0.76, 0.76, 0.76</text></g>
<g transform="translate(30.6,90.0)"><rect y="5" width="14.8" height="9" fill="#BFBFBF" /><text><tspan x="7.4" y="4.2">gray75</tspan></text><text x="7.4" y="13">0.75, 0.75, 0.75</text></g>
<g transform="translate(45.4,90.0)"><rect y="5" width="14.8" height="9" fill="#BFBFBF" /><text><tspan x="7.4" y="4.2">grey75</tspan></text><text x="7.4" y="13">0.75, 0.75, 0.75</text></g>
<g transform="translate(60.2,90.0)"><rect y="5" width="14.8" height="9" fill="#BDBDBD" /><text><tspan x="7.4" y="4.2">gray74</tspan></text><text x="7.4" y="13">0.74, 0.74, 0.74</text></g>
<g transform="translate(75.0,90.0)"><rect y="5" width="14.8" height="9" fill="#BDBDBD" /><text><tspan x="7.4" y="4.2">grey74</tspan></text><text x="7.4" y="13">0.74, 0.74, 0.74</text></g>
<g transform="translate(89.8,90.0)"><rect y="5" width="14.8" height="9" fill="#BABABA" /><text><tspan x="7.4" y="4.2">gray73</tspan></text><text x="7.4" y="13">0.73, 0.73, 0.73</text></g>
<g transform="translate(104.6,90.0)"><rect y="5" width="14.8" height="9" fill="#BABABA" /><text><tspan x="7.4" y="4.2">grey73</tspan></text><text x="7.4" y="13">0.73, 0.73, 0.73</text></g>
<g transform="translate(119.4,90.0)"><rect y="5" width="14.8" height="9" fill="#B8B8B8" /><text><tspan x="7.4" y="4.2">gray72</tspan></text><text x="7.4" y="13">0.72, 0.72, 0.72</text></g>
<g transform="translate(134.2,90.0)"><rect y="5" width="14.8" height="9" fill="#B8B8B8" /><text><tspan x="7.4" y="4.2">grey72</tspan></text><text x="7.4" y="13">0.72, 0.72, 0.72</text></g>
<g transform="translate(1.0,105.0)"><rect y="5" width="14.8" height="9" fill="#B5B5B5" /><text><tspan x="7.4" y="4.2">gray71</tspan></text><text x="7.4" y="13">0.71, 0.71, 0.71</text></g>
<g transform="translate(15.8,105.0)"><rect y="5" width="14.8" height="9" fill="#B5B5B5" /><text><tspan x="7.4" y="4.2">grey71</tspan></text><text x="7.4" y="13">0.71, 0.71, 0.71</text></g>
<g transform="translate(30.6,105.0)"><rect y="5" width="14.8" height="9" fill="#B3B3B3" /><text><tspan x="7.4" y="4.2">gray70</tspan></text><text x="7.4" y="13">0.7, 0.7, 0.7</text></g>
<g transform="translate(45.4,105.0)"><rect y="5" width="14.8" height="9" fill="#B3B3B3" /><text><tspan x="7.4" y="4.2">grey70</tspan></text><text x="7.4" y="13">0.7, 0.7, 0.7</text></g>
<g transform="translate(60.2,105.0)"><rect y="5" width="14.8" height="9" fill="#B0B0B0" /><text><tspan x="7.4" y="4.2">gray69</tspan></text><text x="7.4" y="13">0.69, 0.69, 0.69</text></g>
<g transform="translate(75.0,105.0)"><rect y="5" width="14.8" height="9" fill="#B0B0B0" /><text><tspan x="7.4" y="4.2">grey69</tspan></text><text x="7.4" y="13">0.69, 0.69, 0.69</text></g>
<g transform="translate(89.8,105.0)"><rect y="5" width="14.8" height="9" fill="#ADADAD" /><text><tspan x="7.4" y="4.2">gray68</tspan></text><text x="7.4" y="13">0.68, 0.68, 0.68</text></g>
<g transform="translate(104.6,105.0)"><rect y="5" width="14.8" height="9" fill="#ADADAD" /><text><tspan x="7.4" y="4.2">grey68</tspan></text><text x="7.4" y="13">0.68, 0.68, 0.68</text></g>
<g transform="translate(119.4,105.0)"><rect y="5" width="14.8" height="9" fill="#ABABAB" /><text><tspan x="7.4" y="4.2">gray67</tspan></text><text x="7.4" y="13">0.67, 0.67, 0.67</text></g>
<g transform="translate(134.2,105.0)"><rect y="5" width="14.8" height="9" fill="#ABABAB" /><text><tspan x="7.4" y="4.2">grey67</tspan></text><text x="7.4" y="13">0.67, 0.67, 0.67</text></g>
<g transform="translate(1.0,120.0)"><rect y="5" width="14.8" height="9" fill="#A9A9A9" /><text><tspan x="7.4" y="4.2">darkgray</tspan></text><text x="7.4" y="13">0.66, 0.66, 0.66</text></g>
<g transform="translate(15.8,120.0)"><rect y="5" width="14.8" height="9" fill="#A9A9A9" /><text><tspan x="7.4" y="4.2">darkgrey</tspan></text><text x="7.4" y="13">0.66, 0.66, 0.66</text></g>
<g transform="translate(30.6,120.0)"><rect y="5" width="14.8" height="9" fill="#A8A8A8" /><text><tspan x="7.4" y="4.2">gray66</tspan></text><text x="7.4" y="13">0.66, 0.66, 0.66</text></g>
<g transform="translate(45.4,120.0)"><rect y="5" width="14.8" height="9" fill="#A8A8A8" /><text><tspan x="7.4" y="4.2">grey66</tspan></text><text x="7.4" y="13">0.66, 0.66, 0.66</text></g>
<g transform="translate(60.2,120.0)"><rect y="5" width="14.8" height="9" fill="#A6A6A6" /><text><tspan x="7.4" y="4.2">gray65</tspan></text><text x="7.4" y="13">0.65, 0.65, 0.65</text></g>
<g transform="translate(75.0,120.0)"><rect y="5" width="14.8" height="9" fill="#A6A6A6" /><text><tspan x="7.4" y="4.2">grey65</tspan></text><text x="7.4" y="13">0.65, 0.65, 0.65</text></g>
<g transform="translate(89.8,120.0)"><rect y="5" width="14.8" height="9" fill="#A3A3A3" /><text><tspan x="7.4" y="4.2">gray64</tspan></text><text x="7.4" y="13">0.64, 0.64, 0.64</text></g>
<g transform="translate(104.6,120.0)"><rect y="5" width="14.8" height="9" fill="#A3A3A3" /><text><tspan x="7.4" y="4.2">grey64</tspan></text><text x="7.4" y="13">0.64, 0.64, 0.64</text></g>
<g transform="translate(119.4,120.0)"><rect y="5" width="14.8" height="9" fill="#A1A1A1" /><text><tspan x="7.4" y="4.2">gray63</tspan></text><text x="7.4" y="13">0.63, 0.63, 0.63</text></g>
<g transform="translate(134.2,120.0)"><rect y="5" width="14.8" height="9" fill="#A1A1A1" /><text><tspan x="7.4" y="4.2">grey63</tspan></text><text x="7.4" y="13">0.63, 0.63, 0.63</text></g>
<g transform="translate(1.0,135.0)"><rect y="5" width="14.8" height="9" fill="#9E9E9E" /><text><tspan x="7.4" y="4.2">gray62</tspan></text><text x="7.4" y="13">0.62, 0.62, 0.62</text></g>
<g transform="translate(15.8,135.0)"><rect y="5" width="14.8" height="9" fill="#9E9E9E" /><text><tspan x="7.4" y="4.2">grey62</tspan></text><text x="7.4" y="13">0.62, 0.62, 0.62</text></g>
<g transform="translate(30.6,135.0)"><rect y="5" width="14.8" height="9" fill="#9C9C9C" /><text><tspan x="7.4" y="4.2">gray61</tspan></text><text x="7.4" y="13">0.61, 0.61, 0.61</text></g>
<g transform="translate(45.4,135.0)"><rect y="5" width="14.8" height="9" fill="#9C9C9C" /><text><tspan x="7.4" y="4.2">grey61</tspan></text><text x="7.4" y="13">0.61, 0.61, 0.61</text></g>
<g transform="translate(60.2,135.0)"><rect y="5" width="14.8" height="9" fill="#999999" /><text><tspan x="7.4" y="4.2">gray60</tspan></text><text x="7.4" y="13">0.6, 0.6, 0.6</text></g>
<g transform="translate(75.0,135.0)"><rect y="5" width="14.8" height="9" fill="#999999" /><text><tspan x="7.4" y="4.2">grey60</tspan></text><text x="7.4" y="13">0.6, 0.6, 0.6</text></g>
<g transform="translate(89.8,135.0)"><rect y="5" width="14.8" height="9" fill="#969696" /><text><tspan x="7.4" y="4.2">gray59</tspan></text><text x="7.4" y="13">0.59, 0.59, 0.59</text></g>
<g transform="translate(104.6,135.0)"><rect y="5" width="14.8" height="9" fill="#969696" /><text><tspan x="7.4" y="4.2">grey59</tspan></text><text x="7.4" y="13">0.59, 0.59, 0.59</text></g>
<g transform="translate(119.4,135.0)"><rect y="5" width="14.8" height="9" fill="#949494" /><text><tspan x="7.4" y="4.2">gray58</tspan></text><text x="7.4" y="13">0.58, 0.58, 0.58</text></g>
<g transform="translate(134.2,135.0)"><rect y="5" width="14.8" height="9" fill="#949494" /><text><tspan x="7.4" y="4.2">grey58</tspan></text><text x="7.4" y="13">0.58, 0.58, 0.58</text></g>
<g transform="translate(1.0,150.0)"><rect y="5" width="14.8" height="9" fill="#919191" /><text><tspan x="7.4" y="4.2">gray57</tspan></text><text x="7.4" y="13">0.57, 0.57, 0.57</text></g>
<g transform="translate(15.8,150.0)"><rect y="5" width="14.8" height="9" fill="#919191" /><text><tspan x="7.4" y="4.2">grey57</tspan></text><text x="7.4" y="13">0.57, 0.57, 0.57</text></g>
<g transform="translate(30.6,150.0)"><rect y="5" width="14.8" height="9" fill="#8F8F8F" /><text><tspan x="7.4" y="4.2">gray56</tspan></text><text x="7.4" y="13" class="w">0.56, 0.56, 0.56</text></g>
<g transform="translate(45.4,150.0)"><rect y="5" width="14.8" height="9" fill="#8F8F8F" /><text><tspan x="7.4" y="4.2">grey56</tspan></text><text x="7.4" y="13" class="w">0.56, 0.56, 0.56</text></g>
<g transform="translate(60.2,150.0)"><rect y="5" width="14.8" height="9" fill="#8C8C8C" /><text><tspan x="7.4" y="4.2">gray55</tspan></text><text x="7.4" y="13" class="w">0.55, 0.55, 0.55</text></g>
<g transform="translate(75.0,150.0)"><rect y="5" width="14.8" height="9" fill="#8C8C8C" /><text><tspan x="7.4" y="4.2">grey55</tspan></text><text x="7.4" y="13" class="w">0.55, 0.55, 0.55</text></g>
<g transform="translate(89.8,150.0)"><rect y="5" width="14.8" height="9" fill="#8A8A8A" /><text><tspan x="7.4" y="4.2">gray54</tspan></text><text x="7.4" y="13" class="w">0.54, 0.54, 0.54</text></g>
<g transform="translate(104.6,150.0)"><rect y="5" width="14.8" height="9" fill="#8A8A8A" /><text><tspan x="7.4" y="4.2">grey54</tspan></text><text x="7.4" y="13" class="w">0.54, 0.54, 0.54</text></g>
<g transform="translate(119.4,150.0)"><rect y="5" width="14.8" height="9" fill="#878787" /><text><tspan x="7.4" y="4.2">gray53</tspan></text><text x="7.4" y="13" class="w">0.53, 0.53, 0.53</text></g>
<g transform="translate(134.2,150.0)"><rect y="5" width="14.8" height="9" fill="#878787" /><text><tspan x="7.4" y="4.2">grey53</tspan></text><text x="7.4" y="13" class="w">0.53, 0.53, 0.53</text></g>
<g transform="translate(1.0,165.0)"><rect y="5" width="14.8" height="9" fill="#858585" /><text><tspan x="7.4" y="4.2">gray52</tspan></text><text x="7.4" y="13" class="w">0.52, 0.52, 0.52</text></g>
<g transform="translate(15.8,165.0)"><rect y="5" width="14.8" height="9" fill="#858585" /><text><tspan x="7.4" y="4.2">grey52</tspan></text><text x="7.4" y="13" class="w">0.52, 0.52, 0.52</text></g>
<g transform="translate(30.6,165.0)"><rect y="5" width="14.8" height="9" fill="#828282" /><text><tspan x="7.4" y="4.2">gray51</tspan></text><text x="7.4" y="13" class="w">0.51, 0.51, 0.51</text></g>
<g transform="translate(45.4,165.0)"><rect y="5" width="14.8" height="9" fill="#828282" /><text><tspan x="7.4" y="4.2">grey51</tspan></text><text x="7.4" y="13" class="w">0.51, 0.51, 0.51</text></g>
<g transform="translate(60.2,165.0)"><rect y="5" width="14.8" height="9" fill="#808080" /><text><tspan x="7.4" y="4.2">gray</tspan></text><text x="7.4" y="13" class="w">0.5, 0.5, 0.5</text></g>
<g transform="translate(75.0,165.0)"><rect y="5" width="14.8" height="9" fill="#808080" /><text><tspan x="7.4" y="4.2">grey</tspan></text><text x="7.4" y="13" class="w">0.5, 0.5, 0.5</text></g>
<g transform="translate(89.8,165.0)"><rect y="5" width="14.8" height="9" fill="#7F7F7F" /><text><tspan x="7.4" y="4.2">gray50</tspan></text><text x="7.4" y="13" class="w">0.5, 0.5, 0.5</text></g>
<g transform="translate(104.6,165.0)"><rect y="5" width="14.8" height="9" fill="#7F7F7F" /><text><tspan x="7.4" y="4.2">grey50</tspan></text><text x="7.4" y="13" class="w">0.5, 0.5, 0.5</text></g>
<g transform="translate(119.4,165.0)"><rect y="5" width="14.8" height="9" fill="#7D7D7D" /><text><tspan x="7.4" y="4.2">gray49</tspan></text><text x="7.4" y="13" class="w">0.49, 0.49, 0.49</text></g>
<g transform="translate(134.2,165.0)"><rect y="5" width="14.8" height="9" fill="#7D7D7D" /><text><tspan x="7.4" y="4.2">grey49</tspan></text><text x="7.4" y="13" class="w">0.49, 0.49, 0.49</text></g>
<g transform="translate(1.0,180.0)"><rect y="5" width="14.8" height="9" fill="#7A7A7A" /><text><tspan x="7.4" y="4.2">gray48</tspan></text><text x="7.4" y="13" class="w">0.48, 0.48, 0.48</text></g>
<g transform="translate(15.8,180.0)"><rect y="5" width="14.8" height="9" fill="#7A7A7A" /><text><tspan x="7.4" y="4.2">grey48</tspan></text><text x="7.4" y="13" class="w">0.48, 0.48, 0.48</text></g>
<g transform="translate(30.6,180.0)"><rect y="5" width="14.8" height="9" fill="#787878" /><text><tspan x="7.4" y="4.2">gray47</tspan></text><text x="7.4" y="13" class="w">0.47, 0.47, 0.47</text></g>
<g transform="translate(45.4,180.0)"><rect y="5" width="14.8" height="9" fill="#787878" /><text><tspan x="7.4" y="4.2">grey47</tspan></text><text x="7.4" y="13" class="w">0.47, 0.47, 0.47</text></g>
<g transform="translate(60.2,180.0)"><rect y="5" width="14.8" height="9" fill="#757575" /><text><tspan x="7.4" y="4.2">gray46</tspan></text><text x="7.4" y="13" class="w">0.46, 0.46, 0.46</text></g>
<g transform="translate(75.0,180.0)"><rect y="5" width="14.8" height="9" fill="#757575" /><text><tspan x="7.4" y="4.2">grey46</tspan></text><text x="7.4" y="13" class="w">0.46, 0.46, 0.46</text></g>
<g transform="translate(89.8,180.0)"><rect y="5" width="14.8" height="9" fill="#737373" /><text><tspan x="7.4" y="4.2">gray45</tspan></text><text x="7.4" y="13" class="w">0.45, 0.45, 0.45</text></g>
<g transform="translate(104.6,180.0)"><rect y="5" width="14.8" height="9" fill="#737373" /><text><tspan x="7.4" y="4.2">grey45</tspan></text><text x="7.4" y="13" class="w">0.45, 0.45, 0.45</text></g>
<g transform="translate(119.4,180.0)"><rect y="5" width="14.8" height="9" fill="#707070" /><text><tspan x="7.4" y="4.2">gray44</tspan></text><text x="7.4" y="13" class="w">0.44, 0.44, 0.44</text></g>
<g transform="translate(134.2,180.0)"><rect y="5" width="14.8" height="9" fill="#707070" /><text><tspan x="7.4" y="4.2">grey44</tspan></text><text x="7.4" y="13" class="w">0.44, 0.44, 0.44</text></g>
<g transform="translate(1.0,195.0)"><rect y="5" width="14.8" height="9" fill="#6E6E6E" /><text><tspan x="7.4" y="4.2">gray43</tspan></text><text x="7.4" y="13" class="w">0.43, 0.43, 0.43</text></g>
<g transform="translate(15.8,195.0)"><rect y="5" width="14.8" height="9" fill="#6E6E6E" /><text><tspan x="7.4" y="4.2">grey43</tspan></text><text x="7.4" y="13" class="w">0.43, 0.43, 0.43</text></g>
<g transform="translate(30.6,195.0)"><rect y="5" width="14.8" height="9" fill="#6B6B6B" /><text><tspan x="7.4" y="4.2">gray42</tspan></text><text x="7.4" y="13" class="w">0.42, 0.42, 0.42</text></g>
<g transform="translate(45.4,195.0)"><rect y="5" width="14.8" height="9" fill="#6B6B6B" /><text><tspan x="7.4" y="4.2">grey42</tspan></text><text x="7.4" y="13" class="w">0.42, 0.42, 0.42</text></g>
<g transform="translate(60.2,195.0)"><rect y="5" width="14.8" height="9" fill="#696969" /><text><tspan x="7.4" y="4.2">dimgray</tspan></text><text x="7.4" y="13" class="w">0.41, 0.41, 0.41</text></g>
<g transform="translate(75.0,195.0)"><rect y="5" width="14.8" height="9" fill="#696969" /><text><tspan x="7.4" y="4.2">dimgrey</tspan></text><text x="7.4" y="13" class="w">0.41, 0.41, 0.41</text></g>
<g transform="translate(89.8,195.0)"><rect y="5" width="14.8" height="9" fill="#696969" /><text><tspan x="7.4" y="4.2">gray41</tspan></text><text x="7.4" y="13" class="w">0.41, 0.41, 0.41</text></g>
<g transform="translate(104.6,195.0)"><rect y="5" width="14.8" height="9" fill="#696969" /><text><tspan x="7.4" y="4.2">grey41</tspan></text><text x="7.4" y="13" class="w">0.41, 0.41, 0.41</text></g>
<g transform="translate(119.4,195.0)"><rect y="5" width="14.8" height="9" fill="#666666" /><text><tspan x="7.4" y="4.2">gray40</tspan></text><text x="7.4" y="13" class="w">0.4, 0.4, 0.4</text></g>
<g transform="translate(134.2,195.0)"><rect y="5" width="14.8" height="9" fill="#666666" /><text><tspan x="7.4" y="4.2">grey40</tspan></text><text x="7.4" y="13" class="w">0.4, 0.4, 0.4</text></g>
<g transform="translate(1.0,210.0)"><rect y="5" width="14.8" height="9" fill="#636363" /><text><tspan x="7.4" y="4.2">gray39</tspan></text><text x="7.4" y="13" class="w">0.39, 0.39, 0.39</text></g>
<g transform="translate(15.8,210.0)"><rect y="5" width="14.8" height="9" fill="#636363" /><text><tspan x="7.4" y="4.2">grey39</tspan></text><text x="7.4" y="13" class="w">0.39, 0.39, 0.39</text></g>
<g transform="translate(30.6,210.0)"><rect y="5" width="14.8" height="9" fill="#616161" /><text><tspan x="7.4" y="4.2">gray38</tspan></text><text x="7.4" y="13" class="w">0.38, 0.38, 0.38</text></g>
<g transform="translate(45.4,210.0)"><rect y="5" width="14.8" height="9" fill="#616161" /><text><tspan x="7.4" y="4.2">grey38</tspan></text><text x="7.4" y="13" class="w">0.38, 0.38, 0.38</text></g>
<g transform="translate(60.2,210.0)"><rect y="5" width="14.8" height="9" fill="#5E5E5E" /><text><tspan x="7.4" y="4.2">gray37</tspan></text><text x="7.4" y="13" class="w">0.37, 0.37, 0.37</text></g>
<g transform="translate(75.0,210.0)"><rect y="5" width="14.8" height="9" fill="#5E5E5E" /><text><tspan x="7.4" y="4.2">grey37</tspan></text><text x="7.4" y="13" class="w">0.37, 0.37, 0.37</text></g>
<g transform="translate(89.8,210.0)"><rect y="5" width="14.8" height="9" fill="#5C5C5C" /><text><tspan x="7.4" y="4.2">gray36</tspan></text><text x="7.4" y="13" class="w">0.36, 0.36, 0.36</text></g>
<g transform="translate(104.6,210.0)"><rect y="5" width="14.8" height="9" fill="#5C5C5C" /><text><tspan x="7.4" y="4.2">grey36</tspan></text><text x="7.4" y="13" class="w">0.36, 0.36, 0.36</text></g>
<g transform="translate(119.4,210.0)"><rect y="5" width="14.8" height="9" fill="#595959" /><text><tspan x="7.4" y="4.2">gray35</tspan></text><text x="7.4" y="13" class="w">0.35, 0.35, 0.35</text></g>
<g transform="translate(134.2,210.0)"><rect y="5" width="14.8" height="9" fill="#595959" /><text><tspan x="7.4" y="4.2">grey35</tspan></text><text x="7.4" y="13" class="w">0.35, 0.35, 0.35</text></g>
<g transform="translate(1.0,225.0)"><rect y="5" width="14.8" height="9" fill="#575757" /><text><tspan x="7.4" y="4.2">gray34</tspan></text><text x="7.4" y="13" class="w">0.34, 0.34, 0.34</text></g>
<g transform="translate(15.8,225.0)"><rect y="5" width="14.8" height="9" fill="#575757" /><text><tspan x="7.4" y="4.2">grey34</tspan></text><text x="7.4" y="13" class="w">0.34, 0.34, 0.34</text></g>
<g transform="translate(30.6,225.0)"><rect y="5" width="14.8" height="9" fill="#545454" /><text><tspan x="7.4" y="4.2">gray33</tspan></text><text x="7.4" y="13" class="w">0.33, 0.33, 0.33</text></g>
<g transform="translate(45.4,225.0)"><rect y="5" width="14.8" height="9" fill="#545454" /><text><tspan x="7.4" y="4.2">grey33</tspan></text><text x="7.4" y="13" class="w">0.33, 0.33, 0.33</text></g>
<g transform="translate(60.2,225.0)"><rect y="5" width="14.8" height="9" fill="#525252" /><text><tspan x="7.4" y="4.2">gray32</tspan></text><text x="7.4" y="13" class="w">0.32, 0.32, 0.32</text></g>
<g transform="translate(75.0,225.0)"><rect y="5" width="14.8" height="9" fill="#525252" /><text><tspan x="7.4" y="4.2">grey32</tspan></text><text x="7.4" y="13" class="w">0.32, 0.32, 0.32</text></g>
<g transform="translate(89.8,225.0)"><rect y="5" width="14.8" height="9" fill="#4F4F4F" /><text><tspan x="7.4" y="4.2">gray31</tspan></text><text x="7.4" y="13" class="w">0.31, 0.31, 0.31</text></g>
<g transform="translate(104.6,225.0)"><rect y="5" width="14.8" height="9" fill="#4F4F4F" /><text><tspan x="7.4" y="4.2">grey31</tspan></text><text x="7.4" y="13" class="w">0.31, 0.31, 0.31</text></g>
<g transform="translate(119.4,225.0)"><rect y="5" width="14.8" height="9" fill="#4D4D4D" /><text><tspan x="7.4" y="4.2">gray30</tspan></text><text x="7.4" y="13" class="w">0.3, 0.3, 0.3</text></g>
<g transform="translate(134.2,225.0)"><rect y="5" width="14.8" height="9" fill="#4D4D4D" /><text><tspan x="7.4" y="4.2">grey30</tspan></text><text x="7.4" y="13" class="w">0.3, 0.3, 0.3</text></g>
<g transform="translate(1.0,240.0)"><rect y="5" width="14.8" height="9" fill="#4A4A4A" /><text><tspan x="7.4" y="4.2">gray29</tspan></text><text x="7.4" y="13" class="w">0.29, 0.29, 0.29</text></g>
<g transform="translate(15.8,240.0)"><rect y="5" width="14.8" height="9" fill="#4A4A4A" /><text><tspan x="7.4" y="4.2">grey29</tspan></text><text x="7.4" y="13" class="w">0.29, 0.29, 0.29</text></g>
<g transform="translate(30.6,240.0)"><rect y="5" width="14.8" height="9" fill="#474747" /><text><tspan x="7.4" y="4.2">gray28</tspan></text><text x="7.4" y="13" class="w">0.28, 0.28, 0.28</text></g>
<g transform="translate(45.4,240.0)"><rect y="5" width="14.8" height="9" fill="#474747" /><text><tspan x="7.4" y="4.2">grey28</tspan></text><text x="7.4" y="13" class="w">0.28, 0.28, 0.28</text></g>
<g transform="translate(60.2,240.0)"><rect y="5" width="14.8" height="9" fill="#454545" /><text><tspan x="7.4" y="4.2">gray27</tspan></text><text x="7.4" y="13" class="w">0.27, 0.27, 0.27</text></g>
<g transform="translate(75.0,240.0)"><rect y="5" width="14.8" height="9" fill="#454545" /><text><tspan x="7.4" y="4.2">grey27</tspan></text><text x="7.4" y="13" class="w">0.27, 0.27, 0.27</text></g>
<g transform="translate(89.8,240.0)"><rect y="5" width="14.8" height="9" fill="#424242" /><text><tspan x="7.4" y="4.2">gray26</tspan></text><text x="7.4" y="13" class="w">0.26, 0.26, 0.26</text></g>
<g transform="translate(104.6,240.0)"><rect y="5" width="14.8" height="9" fill="#424242" /><text><tspan x="7.4" y="4.2">grey26</tspan></text><text x="7.4" y="13" class="w">0.26, 0.26, 0.26</text></g>
<g transform="translate(119.4,240.0)"><rect y="5" width="14.8" height="9" fill="#404040" /><text><tspan x="7.4" y="4.2">gray25</tspan></text><text x="7.4" y="13" class="w">0.25, 0.25, 0.25</text></g>
<g transform="translate(134.2,240.0)"><rect y="5" width="14.8" height="9" fill="#404040" /><text><tspan x="7.4" y="4.2">grey25</tspan></text><text x="7.4" y="13" class="w">0.25, 0.25, 0.25</text></g>
<g transform="translate(1.0,255.0)"><rect y="5" width="14.8" height="9" fill="#3D3D3D" /><text><tspan x="7.4" y="4.2">gray24</tspan></text><text x="7.4" y="13" class="w">0.24, 0.24, 0.24</text></g>
<g transform="translate(15.8,255.0)"><rect y="5" width="14.8" height="9" fill="#3D3D3D" /><text><tspan x="7.4" y="4.2">grey24</tspan></text><text x="7.4" y="13" class="w">0.24, 0.24, 0.24</text></g>
<g transform="translate(30.6,255.0)"><rect y="5" width="14.8" height="9" fill="#3B3B3B" /><text><tspan x="7.4" y="4.2">gray23</tspan></text><text x="7.4" y="13" class="w">0.23, 0.23, 0.23</text></g>
<g transform="translate(45.4,255.0)"><rect y="5" width="14.8" height="9" fill="#3B3B3B" /><text><tspan x="7.4" y="4.2">grey23</tspan></text><text x="7.4" y="13" class="w">0.23, 0.23, 0.23</text></g>
<g transform="translate(60.2,255.0)"><rect y="5" width="14.8" height="9" fill="#383838" /><text><tspan x="7.4" y="4.2">gray22</tspan></text><text x="7.4" y="13" class="w">0.22, 0.22, 0.22</text></g>
<g transform="translate(75.0,255.0)"><rect y="5" width="14.8" height="9" fill="#383838" /><text><tspan x="7.4" y="4.2">grey22</tspan></text><text x="7.4" y="13" class="w">0.22, 0.22, 0.22</text></g>
<g transform="translate(89.8,255.0)"><rect y="5" width="14.8" height="9" fill="#363636" /><text><tspan x="7.4" y="4.2">gray21</tspan></text><text x="7.4" y="13" class="w">0.21, 0.21, 0.21</text></g>
<g transform="translate(104.6,255.0)"><rect y="5" width="14.8" height="9" fill="#363636" /><text><tspan x="7.4" y="4.2">grey21</tspan></text><text x="7.4" y="13" class="w">0.21, 0.21, 0.21</text></g>
<g transform="translate(119.4,255.0)"><rect y="5" width="14.8" height="9" fill="#333333" /><text><tspan x="7.4" y="4.2">gray20</tspan></text><text x="7.4" y="13" class="w">0.2, 0.2, 0.2</text></g>
<g transform="translate(134.2,255.0)"><rect y="5" width="14.8" height="9" fill="#333333" /><text><tspan x="7.4" y="4.2">grey20</tspan></text><text x="7.4" y="13" class="w">0.2, 0.2, 0.2</text></g>
<g transform="translate(1.0,270.0)"><rect y="5" width="14.8" height="9" fill="#303030" /><text><tspan x="7.4" y="4.2">gray19</tspan></text><text x="7.4" y="13" class="w">0.19, 0.19, 0.19</text></g>
<g transform="translate(15.8,270.0)"><rect y="5" width="14.8" height="9" fill="#303030" /><text><tspan x="7.4" y="4.2">grey19</tspan></text><text x="7.4" y="13" class="w">0.19, 0.19, 0.19</text></g>
<g transform="translate(30.6,270.0)"><rect y="5" width="14.8" height="9" fill="#2E2E2E" /><text><tspan x="7.4" y="4.2">gray18</tspan></text><text x="7.4" y="13" class="w">0.18, 0.18, 0.18</text></g>
<g transform="translate(45.4,270.0)"><rect y="5" width="14.8" height="9" fill="#2E2E2E" /><text><tspan x="7.4" y="4.2">grey18</tspan></text><text x="7.4" y="13" class="w">0.18, 0.18, 0.18</text></g>
<g transform="translate(60.2,270.0)"><rect y="5" width="14.8" height="9" fill="#2B2B2B" /><text><tspan x="7.4" y="4.2">gray17</tspan></text><text x="7.4" y="13" class="w">0.17, 0.17, 0.17</text></g>
<g transform="translate(75.0,270.0)"><rect y="5" width="14.8" height="9" fill="#2B2B2B" /><text><tspan x="7.4" y="4.2">grey17</tspan></text><text x="7.4" y="13" class="w">0.17, 0.17, 0.17</text></g>
<g transform="translate(89.8,270.0)"><rect y="5" width="14.8" height="9" fill="#292929" /><text><tspan x="7.4" y="4.2">gray16</tspan></text><text x="7.4" y="13" class="w">0.16, 0.16, 0.16</text></g>
<g transform="translate(104.6,270.0)"><rect y="5" width="14.8" height="9" fill="#292929" /><text><tspan x="7.4" y="4.2">grey16</tspan></text><text x="7.4" y="13" class="w">0.16, 0.16, 0.16</text></g>
<g transform="translate(119.4,270.0)"><rect y="5" width="14.8" height="9" fill="#262626" /><text><tspan x="7.4" y="4.2">gray15</tspan></text><text x="7.4" y="13" class="w">0.15, 0.15, 0.15</text></g>
<g transform="translate(134.2,270.0)"><rect y="5" width="14.8" height="9" fill="#262626" /><text><tspan x="7.4" y="4.2">grey15</tspan></text><text x="7.4" y="13" class="w">0.15, 0.15, 0.15</text></g>
<g transform="translate(1.0,285.0)"><rect y="5" width="14.8" height="9" fill="#242424" /><text><tspan x="7.4" y="4.2">gray14</tspan></text><text x="7.4" y="13" class="w">0.14, 0.14, 0.14</text></g>
<g transform="translate(15.8,285.0)"><rect y="5" width="14.8" height="9" fill="#242424" /><text><tspan x="7.4" y="4.2">grey14</tspan></text><text x="7.4" y="13" class="w">0.14, 0.14, 0.14</text></g>
<g transform="translate(30.6,285.0)"><rect y="5" width="14.8" height="9" fill="#212121" /><text><tspan x="7.4" y="4.2">gray13</tspan></text><text x="7.4" y="13" class="w">0.13, 0.13, 0.13</text></g>
<g transform="translate(45.4,285.0)"><rect y="5" width="14.8" height="9" fill="#212121" /><text><tspan x="7.4" y="4.2">grey13</tspan></text><text x="7.4" y="13" class="w">0.13, 0.13, 0.13</text></g>
<g transform="translate(60.2,285.0)"><rect y="5" width="14.8" height="9" fill="#1F1F1F" /><text><tspan x="7.4" y="4.2">gray12</tspan></text><text x="7.4" y="13" class="w">0.12, 0.12, 0.12</text></g>
<g transform="translate(75.0,285.0)"><rect y="5" width="14.8" height="9" fill="#1F1F1F" /><text><tspan x="7.4" y="4.2">grey12</tspan></text><text x="7.4" y="13" class="w">0.12, 0.12, 0.12</text></g>
<g transform="translate(89.8,285.0)"><rect y="5" width="14.8" height="9" fill="#1C1C1C" /><text><tspan x="7.4" y="4.2">gray11</tspan></text><text x="7.4" y="13" class="w">0.11, 0.11, 0.11</text></g>
<g transform="translate(104.6,285.0)"><rect y="5" width="14.8" height="9" fill="#1C1C1C" /><text><tspan x="7.4" y="4.2">grey11</tspan></text><text x="7.4" y="13" class="w">0.11, 0.11, 0.11</text></g>
<g transform="translate(119.4,285.0)"><rect y="5" width="14.8" height="9" fill="#1A1A1A" /><text><tspan x="7.4" y="4.2">gray10</tspan></text><text x="7.4" y="13" class="w">0.1, 0.1, 0.1</text></g>
<g transform="translate(134.2,285.0)"><rect y="5" width="14.8" height="9" fill="#1A1A1A" /><text><tspan x="7.4" y="4.2">grey10</tspan></text><text x="7.4" y="13" class="w">0.1, 0.1, 0.1</text></g>
<g transform="translate(1.0,300.0)"><rect y="5" width="14.8" height="9" fill="#171717" /><text><tspan x="7.4" y="4.2">gray9</tspan></text><text x="7.4" y="13" class="w">0.09, 0.09, 0.09</text></g>
<g transform="translate(15.8,300.0)"><rect y="5" width="14.8" height="9" fill="#171717" /><text><tspan x="7.4" y="4.2">grey9</tspan></text><text x="7.4" y="13" class="w">0.09, 0.09, 0.09</text></g>
<g transform="translate(30.6,300.0)"><rect y="5" width="14.8" height="9" fill="#141414" /><text><tspan x="7.4" y="4.2">gray8</tspan></text><text x="7.4" y="13" class="w">0.08, 0.08, 0.08</text></g>
<g transform="translate(45.4,300.0)"><rect y="5" width="14.8" height="9" fill="#141414" /><text><tspan x="7.4" y="4.2">grey8</tspan></text><text x="7.4" y="13" class="w">0.08, 0.08, 0.08</text></g>
<g transform="translate(60.2,300.0)"><rect y="5" width="14.8" height="9" fill="#121212" /><text><tspan x="7.4" y="4.2">gray7</tspan></text><text x="7.4" y="13" class="w">0.07, 0.07, 0.07</text></g>
<g transform="translate(75.0,300.0)"><rect y="5" width="14.8" height="9" fill="#121212" /><text><tspan x="7.4" y="4.2">grey7</tspan></text><text x="7.4" y="13" class="w">0.07, 0.07, 0.07</text></g>
<g transform="translate(89.8,300.0)"><rect y="5" width="14.8" height="9" fill="#0F0F0F" /><text><tspan x="7.4" y="4.2">gray6</tspan></text><text x="7.4" y="13" class="w">0.06, 0.06, 0.06</text></g>
<g transform="translate(104.6,300.0)"><rect y="5" width="14.8" height="9" fill="#0F0F0F" /><text><tspan x="7.4" y="4.2">grey6</tspan></text><text x="7.4" y="13" class="w">0.06, 0.06, 0.06</text></g>
<g transform="translate(119.4,300.0)"><rect y="5" width="14.8" height="9" fill="#0D0D0D" /><text><tspan x="7.4" y="4.2">gray5</tspan></text><text x="7.4" y="13" class="w">0.05, 0.05, 0.05</text></g>
<g transform="translate(134.2,300.0)"><rect y="5" width="14.8" height="9" fill="#0D0D0D" /><text><tspan x="7.4" y="4.2">grey5</tspan></text><text x="7.4" y="13" class="w">0.05, 0.05, 0.05</text></g>
<g transform="translate(1.0,315.0)"><rect y="5" width="14.8" height="9" fill="#0A0A0A" /><text><tspan x="7.4" y="4.2">gray4</tspan></text><text x="7.4" y="13" class="w">0.04, 0.04, 0.04</text></g>
<g transform="translate(15.8,315.0)"><rect y="5" width="14.8" height="9" fill="#0A0A0A" /><text><tspan x="7.4" y="4.2">grey4</tspan></text><text x="7.4" y="13" class="w">0.04, 0.04, 0.04</text></g>
<g transform="translate(30.6,315.0)"><rect y="5" width="14.8" height="9" fill="#080808" /><text><tspan x="7.4" y="4.2">gray3</tspan></text><text x="7.4" y="13" class="w">0.03, 0.03, 0.03</text></g>
<g transform="translate(45.4,315.0)"><rect y="5" width="14.8" height="9" fill="#080808" /><text><tspan x="7.4" y="4.2">grey3</tspan></text><text x="7.4" y="13" class="w">0.03, 0.03, 0.03</text></g>
<g transform="translate(60.2,315.0)"><rect y="5" width="14.8" height="9" fill="#050505" /><text><tspan x="7.4" y="4.2">gray2</tspan></text><text x="7.4" y="13" class="w">0.02, 0.02, 0.02</text></g>
<g transform="translate(75.0,315.0)"><rect y="5" width="14.8" height="9" fill="#050505" /><text><tspan x="7.4" y="4.2">grey2</tspan></text><text x="7.4" y="13" class="w">0.02, 0.02, 0.02</text></g>
<g transform="translate(89.8,315.0)"><rect y="5" width="14.8" height="9" fill="#030303" /><text><tspan x="7.4" y="4.2">gray1</tspan></text><text x="7.4" y="13" class="w">0.01, 0.01, 0.01</text></g>
<g transform="translate(104.6,315.0)"><rect y="5" width="14.8" height="9" fill="#030303" /><text><tspan x="7.4" y="4.2">grey1</tspan></text><text x="7.4" y="13" class="w">0.01, 0.01, 0.01</text></g>
<g transform="translate(119.4,315.0)"><rect y="5" width="14.8" height="9" fill="#000000" /><text><tspan x="7.4" y="4.2">black</tspan></text><text x="7.4" y="13" class="w">0.0, 0.0, 0.0</text></g>
<g transform="translate(134.2,315.0)"><rect y="5" width="14.8" height="9" fill="#000000" /><text><tspan x="7.4" y="4.2">gray0</tspan></text><text x="7.4" y="13" class="w">0.0, 0.0, 0.0</text></g>
<g transform="translate(1.0,330.0)"><rect y="5" width="14.8" height="9" fill="#000000" /><text><tspan x="7.4" y="4.2">grey0</tspan></text><text x="7.4" y="13" class="w">0.0, 0.0, 0.0</text></g>
</svg>