<svg xmlns="http://www.w3.org/2000/svg" version="1.1"
     viewBox="0 0 150 91.0"
     width="150mm" height="91.0mm"
     style="width:100%; height:auto;"
     shape-rendering="crispEdges" stroke="none">
<defs>
    <style><![CDATA[
        @import url('https://fonts.googleapis.com/css?family=IBM+Plex+Sans+Condensed&display=swap');
        g text:last-child {
            font-size: 2px;
            fill: #000;
        }
        g text {
            text-anchor: middle;
            font-size: 2.5px;
            font-weight: 500;
            font-family: 'IBM Plex Sans Condensed', 'Futura Condensed Medium', 'Segoe UI', 'Roboto Condensed', sans-serif;
            fill: currentColor;
        }
        .header {
            font-size: 5px;
            text-anchor: start;
            font-family: 'Lato', 'Helvetica Neue', 'Arial', sans-serif;
            font-weight: bold;
            fill: currentColor;
        }
        .w {
            fill: #fff !important;
        }
    ]]></style>
</defs>
<text x="1.0" y="10" class="header">Browns</text>
<path d="M0,12 h150" stroke="#888" stroke-width="0.25" />
<g transform="translate(1.0,15.0)"><rect y="5" width="14.8" height="9" fill="#FFEFD5" /><text><tspan x="7.4" y="4.2">papayawhip</tspan></text><text x="7.4" y="13">1.0, 0.94, 0.84</text></g>
<g transform="translate(15.8,15.0)"><rect y="5" width="14.8" height="9" fill="#FFEBCD" /><text><tspan x="7.4" y="2.3">blanched</tspan><tspan x="7.4" y="4.5">almond</tspan></text><text x="7.4" y="13">1.0, 0.92, 0.8</text></g>
<g transform="translate(30.6,15.0)"><rect y="5" width="14.8" height="9" fill="#FFE4C4" /><text><tspan x="7.4" y="4.2">bisque</tspan></text><text x="7.4" y="13">1.0, 0.89, 0.77</text></g>
<g transform="translate(45.4,15.0)"><rect y="5" width="14.8" height="9" fill="#FFE4C4" /><text><tspan x="7.4" y="4.2">bisque1</tspan></text><text x="7.4" y="13">1.0, 0.89, 0.77</text></g>
<g transform="translate(60.2,15.0)"><rect y="5" width="14.8" height="9" fill="#FFE4B5" /><text><tspan x="7.4" y="4.2">moccasin</tspan></text><text x="7.4" y="13">1.0, 0.89, 0.71</text></g>
<g transform="translate(75.0,15.0)"><rect y="5" width="14.8" height="9" fill="#FFDAB9" /><text><tspan x="7.4" y="4.2">peachpuff</tspan></text><text x="7.4" y="13">1.0, 0.85, 0.73</text></g>
<g transform="translate(89.8,15.0)"><rect y="5" width="14.8" height="9" fill="#FFDAB9" /><text><tspan x="7.4" y="4.2">peachpuff1</tspan></text><text x="7.4" y="13">1.0, 0.85, 0.73</text></g>
<g transform="translate(104.6,15.0)"><rect y="5" width="14.8" height="9" fill="#FFD39B" /><text><tspan x="7.4" y="4.2">burlywood1</tspan></text><text x="7.4" y="13">1.0, 0.83, 0.61</text></g>
<g transform="translate(119.4,15.0)"><rect y="5" width="14.8" height="9" fill="#EED5B7" /><text><tspan x="7.4" y="4.2">bisque2</tspan></text><text x="7.4" y="13">0.93, 0.84, 0.72</text></g>
<g transform="translate(134.2,15.0)"><rect y="5" width="14.8" height="9" fill="#EECBAD" /><text><tspan x="7.4" y="4.2">peachpuff2</tspan></text><text x="7.4" y="13">0.93, 0.8, 0.68</text></g>
<g transform="translate(1.0,30.0)"><rect y="5" width="14.8" height="9" fill="#FFC1C1" /><text><tspan x="7.4" y="4.2">rosybrown1</tspan></text><text x="7.4" y="13">1.0, 0.76, 0.76</text></g>
<g transform="translate(15.8,30.0)"><rect y="5" width="14.8" height="9" fill="#EEC591" /><text><tspan x="7.4" y="4.2">burlywood2</tspan></text><text x="7.4" y="13">0.93, 0.77, 0.57</text></g>
<g transform="translate(30.6,30.0)"><rect y="5" width="14.8" height="9" fill="#EEB4B4" /><text><tspan x="7.4" y="4.2">rosybrown2</tspan></text><text x="7.4" y="13">0.93, 0.71, 0.71</text></g>
<g transform="translate(45.4,30.0)"><rect y="5" width="14.8" height="9" fill="#DEB887" /><text><tspan x="7.4" y="4.2">burlywood</tspan></text><text x="7.4" y="13">0.87, 0.72, 0.53</text></g>
<g transform="translate(60.2,30.0)"><rect y="5" width="14.8" height="9" fill="#CDB79E" /><text><tspan x="7.4" y="4.2">bisque3</tspan></text><text x="7.4" y="13">0.8, 0.72, 0.62</text></g>
<g transform="translate(75.0,30.0)"><rect y="5" width="14.8" height="9" fill="#FFA54F" /><text><tspan x="7.4" y="4.2">tan1</tspan></text><text x="7.4" y="13">1.0, 0.65, 0.31</text></g>
<g transform="translate(89.8,30.0)"><rect y="5" width="14.8" height="9" fill="#D2B48C" /><text><tspan x="7.4" y="4.2">tan</tspan></text><text x="7.4" y="13">0.82, 0.71, 0.55</text></g>
<g transform="translate(104.6,30.0)"><rect y="5" width="14.8" height="9" fill="#F4A460" /><text><tspan x="7.4" y="4.2">sandybrown</tspan></text><text x="7.4" y="13">0.96, 0.64, 0.38</text></g>
<g transform="translate(119.4,30.0)"><rect y="5" width="14.8" height="9" fill="#CDAF95" /><text><tspan x="7.4" y="4.2">peachpuff3</tspan></text><text x="7.4" y="13">0.8, 0.69, 0.58</text></g>
<g transform="translate(134.2,30.0)"><rect y="5" width="14.8" height="9" fill="#CDAA7D" /><text><tspan x="7.4" y="4.2">burlywood3</tspan></text><text x="7.4" y="13">0.8, 0.67, 0.49</text></g>
<g transform="translate(1.0,45.0)"><rect y="5" width="14.8" height="9" fill="#EE9A49" /><text><tspan x="7.4" y="4.2">tan2</tspan></text><text x="7.4" y="13">0.93, 0.6, 0.29</text></g>
<g transform="translate(15.8,45.0)"><rect y="5" width="14.8" height="9" fill="#CD9B9B" /><text><tspan x="7.4" y="4.2">rosybrown3</tspan></text><text x="7.4" y="13">0.8, 0.61, 0.61</text></g>
<g transform="translate(30.6,45.0)"><rect y="5" width="14.8" height="9" fill="#FF8247" /><text><tspan x="7.4" y="4.2">sienna1</tspan></text><text x="7.4" y="13">1.0, 0.51, 0.28</text></g>
<g transform="translate(45.4,45.0)"><rect y="5" width="14.8" height="9" fill="#FF7F24" /><text><tspan x="7.4" y="4.2">chocolate1</tspan></text><text x="7.4" y="13">1.0, 0.5, 0.14</text></g>
<g transform="translate(60.2,45.0)"><rect y="5" width="14.8" height="9" fill="#BC8F8F" /><text><tspan x="7.4" y="4.2">rosybrown</tspan></text><text x="7.4" y="13">0.74, 0.56, 0.56</text></g>
<g transform="translate(75.0,45.0)"><rect y="5" width="14.8" height="9" fill="#EE7942" /><text><tspan x="7.4" y="4.2">sienna2</tspan></text><text x="7.4" y="13">0.93, 0.47, 0.26</text></g>
<g transform="translate(89.8,45.0)"><rect y="5" width="14.8" height="9" fill="#EE7621" /><text><tspan x="7.4" y="4.2">chocolate2</tspan></text><text x="7.4" y="13">0.93, 0.46, 0.13</text></g>
<g transform="translate(104.6,45.0)"><rect y="5" width="14.8" height="9" fill="#CD853F" /><text><tspan x="7.4" y="4.2">peru</tspan></text><text x="7.4" y="13">0.8, 0.52, 0.25</text></g>
<g transform="translate(119.4,45.0)"><rect y="5" width="14.8" height="9" fill="#CD853F" /><text><tspan x="7.4" y="4.2">tan3</tspan></text><text x="7.4" y="13">0.8, 0.52, 0.25</text></g>
<g transform="translate(134.2,45.0)"><rect y="5" width="14.8" height="9" fill="#FF4040" /><text><tspan x="7.4" y="4.2">brown1</tspan></text><text x="7.4" y="13" class="w">1.0, 0.25, 0.25</text></g>
<g transform="translate(1.0,60.0)"><rect y="5" width="14.8" height="9" fill="#D2691E" /><text><tspan x="7.4" y="4.2">chocolate</tspan></text><text x="7.4" y="13" class="w">0.82, 0.41, 0.12</text></g>
<g transform="translate(15.8,60.0)"><rect y="5" width="14.8" height="9" fill="#CD6839" /><text><tspan x="7.4" y="4.2">sienna3</tspan></text><text x="7.4" y="13" class="w">0.8, 0.41, 0.22</text></g>
<g transform="translate(30.6,60.0)"><rect y="5" width="14.8" height="9" fill="#CD661D" /><text><tspan x="7.4" y="4.2">chocolate3</tspan></text><text x="7.4" y="13" class="w">0.8, 0.4, 0.11</text></g>
<g transform="translate(45.4,60.0)"><rect y="5" width="14.8" height="9" fill="#EE3B3B" /><text><tspan x="7.4" y="4.2">brown2</tspan></text><text x="7.4" y="13" class="w">0.93, 0.23, 0.23</text></g>
<g transform="translate(60.2,60.0)"><rect y="5" width="14.8" height="9" fill="#8B7D6B" /><text><tspan x="7.4" y="4.2">bisque4</tspan></text><text x="7.4" y="13" class="w">0.55, 0.49, 0.42</text></g>
<g transform="translate(75.0,60.0)"><rect y="5" width="14.8" height="9" fill="#8B7765" /><text><tspan x="7.4" y="4.2">peachpuff4</tspan></text><text x="7.4" y="13" class="w">0.55, 0.47, 0.4</text></g>
<g transform="translate(89.8,60.0)"><rect y="5" width="14.8" height="9" fill="#8B7355" /><text><tspan x="7.4" y="4.2">burlywood4</tspan></text><text x="7.4" y="13" class="w">0.55, 0.45, 0.33</text></g>
<g transform="translate(104.6,60.0)"><rect y="5" width="14.8" height="9" fill="#8B6969" /><text><tspan x="7.4" y="4.2">rosybrown4</tspan></text><text x="7.4" y="13" class="w">0.55, 0.41, 0.41</text></g>
<g transform="translate(119.4,60.0)"><rect y="5" width="14.8" height="9" fill="#CD3333" /><text><tspan x="7.4" y="4.2">brown3</tspan></text><text x="7.4" y="13" class="w">0.8, 0.2, 0.2</text></g>
<g transform="translate(134.2,60.0)"><rect y="5" width="14.8" height="9" fill="#A0522D" /><text><tspan x="7.4" y="4.2">sienna</tspan></text><text x="7.4" y="13" class="w">0.63, 0.32, 0.18</text></g>
<g transform="translate(1.0,75.0)"><rect y="5" width="14.8" height="9" fill="#8B5A2B" /><text><tspan x="7.4" y="4.2">tan4</tspan></text><text x="7.4" y="13" class="w">0.55, 0.35, 0.17</text></g>
<g transform="translate(15.8,75.0)"><rect y="5" width="14.8" height="9" fill="#8B4726" /><text><tspan x="7.4" y="4.2">sienna4</tspan></text><text x="7.4" y="13" class="w">0.55, 0.28, 0.15</text></g>
<g transform="translate(30.6,75.0)"><rect y="5" width="14.8" height="9" fill="#A52A2A" /><text><tspan x="7.4" y="4.2">brown</tspan></text><text x="7.4" y="13" class="w">0.65, 0.16, 0.16</text></g>
<g transform="translate(45.4,75.0)"><rect y="5" width="14.8" height="9" fill="#8B4513" /><text><tspan x="7.4" y="4.2">chocolate4</tspan></text><text x="7.4" y="13" class="w">0.55, 0.27, 0.07</text></g>
<g transform="translate(60.2,75.0)"><rect y="5" width="14.8" height="9" fill="#8B4513" /><text><tspan x="7.4" y="4.2">saddlebrown</tspan></text><text x="7.4" y="13" class="w">0.55, 0.27, 0.07</text></g>
<g transform="translate(75.0,75.0)"><rect y="5" width="14.8" height="9" fill="#8B2323" /><text><tspan x="7.4" y="4.2">brown4</tspan></text><text x="7.4" y="13" class="w">0.55, 0.14, 0.14</text></g>
</svg>