<svg xmlns="http://www.w3.org/2000/svg" version="1.1"
     viewBox="0 0 150 91.0"
     width="150mm" height="91.0mm"
     style="width:100%; height:auto;"
     shape-rendering="crispEdges" stroke="none">
<defs>
    <style><![CDATA[
        @import url('https://fonts.googleapis.com/css?family=IBM+Plex+Sans+Condensed&display=swap');
        g text:last-child {
            font-size: 2px;
            fill: #000;
        }
        g text {
            text-anchor: middle;
            font-size: 2.5px;
            font-weight: 500;
            font-family: 'IBM Plex Sans Condensed', 'Futura Condensed Medium', 'Segoe UI', 'Roboto Condensed', sans-serif;
            fill: currentColor;
        }
        .header {
            font-size: 5px;
            text-anchor: start;
            font-family: 'Lato', 'Helvetica Neue', 'Arial', sans-serif;
            font-weight: bold;
            fill: currentColor;
        }
        .w {
            fill: #fff !important;
        }
    ]]></style>
</defs>
<text x="1.0" y="10" class="header">Yellows</text>
<path d="M0,12 h150" stroke="#888" stroke-width="0.25" />
<g transform="translate(1.0,15.0)"><rect y="5" width="14.8" height="9" fill="#FFFFE0" /><text><tspan x="7.4" y="4.2">lightyellow</tspan></text><text x="7.4" y="13">1.0, 1.0, 0.88</text></g>
<g transform="translate(15.8,15.0)"><rect y="5" width="14.8" height="9" fill="#FFFFE0" /><text><tspan x="7.4" y="4.2">lightyellow1</tspan></text><text x="7.4" y="13">1.0, 1.0, 0.88</text></g>
<g transform="translate(30.6,15.0)"><rect y="5" width="14.8" height="9" fill="#FFFACD" /><text><tspan x="7.4" y="4.2">lemonchiffon</tspan></text><text x="7.4" y="13">1.0, 0.98, 0.8</text></g>
<g transform="translate(45.4,15.0)"><rect y="5" width="14.8" height="9" fill="#FFFACD" /><text><tspan x="7.4" y="2.3">lemon</tspan><tspan x="7.4" y="4.5">chiffon1</tspan></text><text x="7.4" y="13">1.0, 0.98, 0.8</text></g>
<g transform="translate(60.2,15.0)"><rect y="5" width="14.8" height="9" fill="#FAFAD2" /><text><tspan x="7.4" y="2.3">light</tspan><tspan x="7.4" y="4.5">goldenrodyellow</tspan></text><text x="7.4" y="13">0.98, 0.98, 0.82</text></g>
<g transform="translate(75.0,15.0)"><rect y="5" width="14.8" height="9" fill="#FFFF00" /><text><tspan x="7.4" y="4.2">yellow</tspan></text><text x="7.4" y="13">1.0, 1.0, 0.0</text></g>
<g transform="translate(89.8,15.0)"><rect y="5" width="14.8" height="9" fill="#FFFF00" /><text><tspan x="7.4" y="4.2">yellow1</tspan></text><text x="7.4" y="13">1.0, 1.0, 0.0</text></g>
<g transform="translate(104.6,15.0)"><rect y="5" width="14.8" height="9" fill="#FFF68F" /><text><tspan x="7.4" y="4.2">khaki1</tspan></text><text x="7.4" y="13">1.0, 0.96, 0.56</text></g>
<g transform="translate(119.4,15.0)"><rect y="5" width="14.8" height="9" fill="#EEEED1" /><text><tspan x="7.4" y="4.2">lightyellow2</tspan></text><text x="7.4" y="13">0.93, 0.93, 0.82</text></g>
<g transform="translate(134.2,15.0)"><rect y="5" width="14.8" height="9" fill="#FFEC8B" /><text><tspan x="7.4" y="2.3">light</tspan><tspan x="7.4" y="4.5">goldenrod1</tspan></text><text x="7.4" y="13">1.0, 0.93, 0.55</text></g>
<g transform="translate(1.0,30.0)"><rect y="5" width="14.8" height="9" fill="#FFE7BA" /><text><tspan x="7.4" y="4.2">wheat1</tspan></text><text x="7.4" y="13">1.0, 0.91, 0.73</text></g>
<g transform="translate(15.8,30.0)"><rect y="5" width="14.8" height="9" fill="#EEE9BF" /><text><tspan x="7.4" y="2.3">lemon</tspan><tspan x="7.4" y="4.5">chiffon2</tspan></text><text x="7.4" y="13">0.93, 0.91, 0.75</text></g>
<g transform="translate(30.6,30.0)"><rect y="5" width="14.8" height="9" fill="#EEEE00" /><text><tspan x="7.4" y="4.2">yellow2</tspan></text><text x="7.4" y="13">0.93, 0.93, 0.0</text></g>
<g transform="translate(45.4,30.0)"><rect y="5" width="14.8" height="9" fill="#EEE8AA" /><text><tspan x="7.4" y="2.3">pale</tspan><tspan x="7.4" y="4.5">goldenrod</tspan></text><text x="7.4" y="13">0.93, 0.91, 0.67</text></g>
<g transform="translate(60.2,30.0)"><rect y="5" width="14.8" height="9" fill="#F0E68C" /><text><tspan x="7.4" y="4.2">khaki</tspan></text><text x="7.4" y="13">0.94, 0.9, 0.55</text></g>
<g transform="translate(75.0,30.0)"><rect y="5" width="14.8" height="9" fill="#EEE685" /><text><tspan x="7.4" y="4.2">khaki2</tspan></text><text x="7.4" y="13">0.93, 0.9, 0.52</text></g>
<g transform="translate(89.8,30.0)"><rect y="5" width="14.8" height="9" fill="#F5DEB3" /><text><tspan x="7.4" y="4.2">wheat</tspan></text><text x="7.4" y="13">0.96, 0.87, 0.7</text></g>
<g transform="translate(104.6,30.0)"><rect y="5" width="14.8" height="9" fill="#EEDD82" /><text><tspan x="7.4" y="2.3">light</tspan><tspan x="7.4" y="4.5">goldenrod</tspan></text><text x="7.4" y="13">0.93, 0.87, 0.51</text></g>
<g transform="translate(119.4,30.0)"><rect y="5" width="14.8" height="9" fill="#EEDC82" /><text><tspan x="7.4" y="2.3">light</tspan><tspan x="7.4" y="4.5">goldenrod2</tspan></text><text x="7.4" y="13">0.93, 0.86, 0.51</text></g>
<g transform="translate(134.2,30.0)"><rect y="5" width="14.8" height="9" fill="#EED8AE" /><text><tspan x="7.4" y="4.2">wheat2</tspan></text><text x="7.4" y="13">0.93, 0.85, 0.68</text></g>
<g transform="translate(1.0,45.0)"><rect y="5" width="14.8" height="9" fill="#FFD700" /><text><tspan x="7.4" y="4.2">gold</tspan></text><text x="7.4" y="13">1.0, 0.84, 0.0</text></g>
<g transform="translate(15.8,45.0)"><rect y="5" width="14.8" height="9" fill="#FFD700" /><text><tspan x="7.4" y="4.2">gold1</tspan></text><text x="7.4" y="13">1.0, 0.84, 0.0</text></g>
<g transform="translate(30.6,45.0)"><rect y="5" width="14.8" height="9" fill="#EEC900" /><text><tspan x="7.4" y="4.2">gold2</tspan></text><text x="7.4" y="13">0.93, 0.79, 0.0</text></g>
<g transform="translate(45.4,45.0)"><rect y="5" width="14.8" height="9" fill="#CDCDB4" /><text><tspan x="7.4" y="4.2">lightyellow3</tspan></text><text x="7.4" y="13">0.8, 0.8, 0.71</text></g>
<g transform="translate(60.2,45.0)"><rect y="5" width="14.8" height="9" fill="#FFC125" /><text><tspan x="7.4" y="4.2">goldenrod1</tspan></text><text x="7.4" y="13">1.0, 0.76, 0.15</text></g>
<g transform="translate(75.0,45.0)"><rect y="5" width="14.8" height="9" fill="#CDC9A5" /><text><tspan x="7.4" y="2.3">lemon</tspan><tspan x="7.4" y="4.5">chiffon3</tspan></text><text x="7.4" y="13">0.8, 0.79, 0.65</text></g>
<g transform="translate(89.8,45.0)"><rect y="5" width="14.8" height="9" fill="#CDCD00" /><text><tspan x="7.4" y="4.2">yellow3</tspan></text><text x="7.4" y="13">0.8, 0.8, 0.0</text></g>
<g transform="translate(104.6,45.0)"><rect y="5" width="14.8" height="9" fill="#FFB90F" /><text><tspan x="7.4" y="2.3">dark</tspan><tspan x="7.4" y="4.5">goldenrod1</tspan></text><text x="7.4" y="13">1.0, 0.73, 0.06</text></g>
<g transform="translate(119.4,45.0)"><rect y="5" width="14.8" height="9" fill="#CDC673" /><text><tspan x="7.4" y="4.2">khaki3</tspan></text><text x="7.4" y="13">0.8, 0.78, 0.45</text></g>
<g transform="translate(134.2,45.0)"><rect y="5" width="14.8" height="9" fill="#CDBE70" /><text><tspan x="7.4" y="2.3">light</tspan><tspan x="7.4" y="4.5">goldenrod3</tspan></text><text x="7.4" y="13">0.8, 0.75, 0.44</text></g>
<g transform="translate(1.0,60.0)"><rect y="5" width="14.8" height="9" fill="#EEB422" /><text><tspan x="7.4" y="4.2">goldenrod2</tspan></text><text x="7.4" y="13">0.93, 0.71, 0.13</text></g>
<g transform="translate(15.8,60.0)"><rect y="5" width="14.8" height="9" fill="#CDBA96" /><text><tspan x="7.4" y="4.2">wheat3</tspan></text><text x="7.4" y="13">0.8, 0.73, 0.59</text></g>
<g transform="translate(30.6,60.0)"><rect y="5" width="14.8" height="9" fill="#EEAD0E" /><text><tspan x="7.4" y="2.3">dark</tspan><tspan x="7.4" y="4.5">goldenrod2</tspan></text><text x="7.4" y="13">0.93, 0.68, 0.05</text></g>
<g transform="translate(45.4,60.0)"><rect y="5" width="14.8" height="9" fill="#BDB76B" /><text><tspan x="7.4" y="4.2">darkkhaki</tspan></text><text x="7.4" y="13">0.74, 0.72, 0.42</text></g>
<g transform="translate(60.2,60.0)"><rect y="5" width="14.8" height="9" fill="#CDAD00" /><text><tspan x="7.4" y="4.2">gold3</tspan></text><text x="7.4" y="13">0.8, 0.68, 0.0</text></g>
<g transform="translate(75.0,60.0)"><rect y="5" width="14.8" height="9" fill="#DAA520" /><text><tspan x="7.4" y="4.2">goldenrod</tspan></text><text x="7.4" y="13">0.85, 0.65, 0.13</text></g>
<g transform="translate(89.8,60.0)"><rect y="5" width="14.8" height="9" fill="#CD9B1D" /><text><tspan x="7.4" y="4.2">goldenrod3</tspan></text><text x="7.4" y="13">0.8, 0.61, 0.11</text></g>
<g transform="translate(104.6,60.0)"><rect y="5" width="14.8" height="9" fill="#CD950C" /><text><tspan x="7.4" y="2.3">dark</tspan><tspan x="7.4" y="4.5">goldenrod3</tspan></text><text x="7.4" y="13">0.8, 0.58, 0.05</text></g>
<g transform="translate(119.4,60.0)"><rect y="5" width="14.8" height="9" fill="#B8860B" /><text><tspan x="7.4" y="2.3">dark</tspan><tspan x="7.4" y="4.5">goldenrod</tspan></text><text x="7.4" y="13" class="w">0.72, 0.53, 0.04</text></g>
<g transform="translate(134.2,60.0)"><rect y="5" width="14.8" height="9" fill="#8B8B7A" /><text><tspan x="7.4" y="4.2">lightyellow4</tspan></text><text x="7.4" y="13" class="w">0.55, 0.55, 0.48</text></g>
<g transform="translate(1.0,75.0)"><rect y="5" width="14.8" height="9" fill="#8B8970" /><text><tspan x="7.4" y="2.3">lemon</tspan><tspan x="7.4" y="4.5">chiffon4</tspan></text><text x="7.4" y="13" class="w">0.55, 0.54, 0.44</text></g>
<g transform="translate(15.8,75.0)"><rect y="5" width="14.8" height="9" fill="#8B8B00" /><text><tspan x="7.4" y="4.2">yellow4</tspan></text><text x="7.4" y="13" class="w">0.55, 0.55, 0.0</text></g>
<g transform="translate(30.6,75.0)"><rect y="5" width="14.8" height="9" fill="#8B864E" /><text><tspan x="7.4" y="4.2">khaki4</tspan></text><text x="7.4" y="13" class="w">0.55, 0.53, 0.31</text></g>
<g transform="translate(45.4,75.0)"><rect y="5" width="14.8" height="9" fill="#8B814C" /><text><tspan x="7.4" y="2.3">light</tspan><tspan x="7.4" y="4.5">goldenrod4</tspan></text><text x="7.4" y="13" class="w">0.55, 0.51, 0.3</text></g>
<g transform="translate(60.2,75.0)"><rect y="5" width="14.8" height="9" fill="#8B7E66" /><text><tspan x="7.4" y="4.2">wheat4</tspan></text><text x="7.4" y="13" class="w">0.55, 0.49, 0.4</text></g>
<g transform="translate(75.0,75.0)"><rect y="5" width="14.8" height="9" fill="#8B7500" /><text><tspan x="7.4" y="4.2">gold4</tspan></text><text x="7.4" y="13" class="w">0.55, 0.46, 0.0</text></g>
<g transform="translate(89.8,75.0)"><rect y="5" width="14.8" height="9" fill="#8B6914" /><text><tspan x="7.4" y="4.2">goldenrod4</tspan></text><text x="7.4" y="13" class="w">0.55, 0.41, 0.08</text></g>
<g transform="translate(104.6,75.0)"><rect y="5" width="14.8" height="9" fill="#8B6508" /><text><tspan x="7.4" y="2.3">dark</tspan><tspan x="7.4" y="4.5">goldenrod4</tspan></text><text x="7.4" y="13" class="w">0.55, 0.4, 0.03</text></g>
</svg>